<?xml version="1.0" encoding="UTF-8"?>
<svg width="53px" height="40px" viewBox="0 0 53 40" version="1.1" xmlns="http://www.w3.org/2000/svg" xmlns:xlink="http://www.w3.org/1999/xlink">
    <title>Group 2</title>
    <g id="2021桃園管樂音樂節" stroke="none" stroke-width="1" fill="none" fill-rule="evenodd">
        <g id="01_Home" transform="translate(-353.000000, -20.000000)" fill="#2EB5A9">
            <g id="Group-2" transform="translate(353.000000, 20.000000)">
                <path d="M47.5275582,0.0864910909 C48.4860999,-0.16582418 49.4126475,0.165899958 50.2675285,0.667968923 C51.5037785,1.38905267 52.0335999,2.87476695 51.5216951,3.98264873 C50.5861892,6.00757483 49.9539868,6.27782114 48.0010701,5.69250094 C47.2626475,5.47220538 46.5139868,4.51801818 45.8485106,5.08412656 C45.3890761,5.47348616 45.4709808,6.50323986 45.3058916,7.24737779 C43.7420225,14.3839295 43.1021416,21.6613679 41.9477963,28.8593975 C41.8198201,29.648363 42.158957,31.1443236 40.8241654,30.9496438 C39.6186297,30.7716142 40.2943439,29.5023532 40.412082,28.7236339 C41.6649689,20.4420576 42.4136297,12.0759492 44.4279749,3.91604774 C44.4791654,3.70727927 44.5444332,3.48954528 44.5367547,3.28205759 C44.4087785,0.329840845 44.5022011,0.22737779 47.5275582,0.0864910909" id="Fill-72"></path>
                <path d="M1.59130382,30.3942546 C1.58362525,33.6000674 1.64121453,35.9900182 2.14672048,38.3453876 C2.27213715,38.9217423 2.21966691,39.4904123 1.54523239,39.6581955 C0.827285961,39.8362251 0.599488342,39.3444024 0.525262151,38.7321857 C-0.282267611,32.1988852 -0.318100944,25.7027275 1.56442882,19.3179985 C2.01490501,17.791299 2.52808953,16.1326783 4.40422048,15.9034172 C6.53630382,15.6434172 8.46234548,16.442629 10.1567502,17.7157325 C10.6660955,18.0974073 10.8068693,18.7313975 10.4510955,19.3346487 C10.0428514,20.0365206 9.43880382,20.6833187 8.63127406,20.6397719 C7.12371453,20.5552399 5.58160144,20.4604615 4.2020181,19.7265699 C3.40216691,19.3013482 3.09630382,19.5575059 2.85442882,20.3784911 C1.81142287,23.9185896 1.71032168,27.562432 1.59130382,30.3942546" id="Fill-73"></path>
                <path d="M28.7241445,27.8073581 C28.9135493,29.3545502 28.7241445,30.6647965 26.8838469,31.0746487 C25.6207219,31.3564221 23.9096803,30.3420379 23.7202755,29.1701167 C23.5513469,28.1544517 24.6442636,26.9799689 26.055841,27.0119886 C27.2306624,27.0376044 27.1346803,26.4868655 26.9875076,25.7452891 C26.32971,22.444698 25.8024481,19.1082448 24.7811981,15.8985896 C24.1003648,13.7609541 23.9659898,11.5234172 23.3926564,9.37297385 C23.2582814,8.86834331 23.3158707,8.33297385 23.9493529,8.21514134 C24.5060493,8.11267828 24.9091743,8.4136635 24.9910791,8.98745661 C25.8254838,14.8534665 27.9178945,20.4543532 28.6422398,26.3434172 C28.7011088,26.8275551 28.6972695,27.3193778 28.7241445,27.8073581" id="Fill-74"></path>
            </g>
        </g>
    </g>
</svg>