<?xml version="1.0" encoding="UTF-8"?>
<svg width="164px" height="196px" viewBox="0 0 164 196" version="1.1" xmlns="http://www.w3.org/2000/svg" xmlns:xlink="http://www.w3.org/1999/xlink">
    <title>Group</title>
    <defs>
        <polygon id="path-1" points="0 0.0507501546 62.7006969 0.0507501546 62.7006969 55.6336465 0 55.6336465"></polygon>
        <polygon id="path-3" points="0.266267575 0.35787772 13.3765824 0.35787772 13.3765824 14.0571606 0.266267575 14.0571606"></polygon>
    </defs>
    <g id="2021桃園管樂音樂節" stroke="none" stroke-width="1" fill="none" fill-rule="evenodd">
        <g id="03_event" transform="translate(-988.000000, -1244.000000)">
            <g id="info" transform="translate(120.000000, 1225.000000)">
                <g id="Group-2" transform="translate(70.000000, 19.000000)">
                    <g id="Group" transform="translate(798.000000, 0.000000)">
                        <g id="Group-9" transform="translate(0.000000, -0.000000)">
                            <path d="M71.7080669,111.110847 C71.7080669,111.110847 53.4472703,148.720595 63.7548807,159.626737 C74.0596419,170.53288 82.3138981,176.532494 82.3138981,176.532494 L82.6102193,178.283332 L84.4736241,179.919158 L83.6872331,181.52837 L82.4430638,181.072126 C82.4430638,181.072126 83.0831936,186.615496 79.7495796,188.774102 C79.7495796,188.774102 83.0850931,183.302971 77.9593055,181.201395 C72.832568,179.096968 59.2122381,169.742056 54.9630674,165.712848 C50.7119973,161.681738 50.4261232,144.931865 50.6835048,136.553127 C50.9418362,128.173437 46.7316052,132.262528 45.3022351,136.207141 C43.8719152,140.152705 35.5397797,154.634663 41.9724201,167.716521 C48.4041107,180.798379 49.6967171,183.833355 49.6967171,183.833355 L51.5724686,188.755092 L50.4679121,190.276857 L49.0527882,189.198029 C49.0527882,189.198029 47.2805593,193.962932 43.3115642,192.636971 C43.3115642,192.636971 50.2475707,189.415696 44.2024274,185.6897 C38.1572841,181.965605 29.9505153,162.909796 30.5934944,153.953148 C31.2402725,144.9965 36.2036533,125.35898 41.1812803,119.31184 C46.1579576,113.2628 53.7245966,99.4832677 53.7245966,99.4832677 C53.7245966,99.4832677 56.8369194,113.203868 71.7080669,111.110847" id="Fill-47" fill="#181A19"></path>
                            <path d="M80.4626501,69.4082061 L67.3437869,63.3838788 C67.3437869,63.3838788 50.0555317,97.2134517 49.9016726,101.693202 C49.7478135,106.172001 57.4654623,108.799208 61.7868138,108.954588 C66.109115,109.108124 80.4626501,69.4082061 80.4626501,69.4082061" id="Fill-48" fill="#FDFDFD"></path>
                            <polygon id="Fill-49" fill="#181A19" points="71.1631967 71.5579727 70.2409918 74.373381 68.5124512 74.1443083 56.3946219 102.480889 54.7895485 103.017926 54.2035543 101.188196 67.5532062 73.7935704 66.8143026 72.5560074 69.3919175 70.2690823"></polygon>
                            <path d="M68.8301418,72.2123983 C68.8766794,72.6135132 69.059031,72.8806063 69.4227843,72.954746 C69.645975,72.9965684 69.7922361,72.8444869 69.7884371,72.6030576 C69.7789396,72.2570722 69.5633469,72.0546138 69.2632267,71.9595629 C69.0352873,71.8873242 68.9042221,72.0403562 68.8301418,72.2123983" id="Fill-50" fill="#FEFEFE"></path>
                            <path d="M75.7319574,43.595893 C75.7319574,43.595893 75.492621,42.2604276 75.8601734,41.3907117 C76.2277257,40.5200453 79.9497864,42.2908439 82.64517,44.6889786 C85.3462521,47.0918659 86.392874,48.3779048 86.2361656,49.6972116 C86.0794573,51.0193699 84.3575649,53.5610315 84.4411427,54.536254 C84.5285195,55.5152784 83.4078173,58.2004669 80.7960115,58.4533024 L70.8284107,51.439495 L75.7319574,43.595893 Z" id="Fill-51" fill="#070404"></path>
                            <path d="M81.0256605,55.5738298 L82.4198899,48.6417662 C82.4198899,48.6417662 79.9543452,45.2579534 78.7006784,44.7199652 C77.4498609,44.181977 76.2180382,43.0071476 75.5142753,43.8445463 C74.8114621,44.6828954 74.4894977,45.4147875 74.4894977,45.4147875 C74.4894977,45.4147875 71.7314307,48.0990254 70.2393773,52.7793327 C68.7425751,57.4548875 71.2546574,56.417882 70.8329695,58.7095597 C70.4103318,61.0012373 68.0948472,65.6786931 68.0948472,65.6786931 C68.0948472,65.6786931 68.2458571,69.542513 71.5870691,71.3503815 C74.9273313,73.156349 78.0539003,68.4931509 78.0539003,68.4931509 L80.7825251,58.1734725 C80.7825251,58.1734725 81.6467954,57.1431205 82.6478293,56.628895 C83.6517125,56.1127685 84.0800487,54.3153556 82.8539246,54.719322 C81.6230517,55.1251895 81.0256605,55.5738298 81.0256605,55.5738298" id="Fill-52" fill="#FDFDFD"></path>
                            <path d="M81.0256605,55.5738298 L82.4198899,48.6417662 C82.4198899,48.6417662 79.9543452,45.2579534 78.7006784,44.7199652 C77.4498609,44.181977 76.2180382,43.0071476 75.5142753,43.8445463 C74.8114621,44.6828954 74.4894977,45.4147875 74.4894977,45.4147875 C74.4894977,45.4147875 71.7314307,48.0990254 70.2393773,52.7793327 C68.7425751,57.4548875 71.2546574,56.417882 70.8329695,58.7095597 C70.4103318,61.0012373 68.0948472,65.6786931 68.0948472,65.6786931 C68.0948472,65.6786931 68.2458571,69.542513 71.5870691,71.3503815 C74.9273313,73.156349 78.0539003,68.4931509 78.0539003,68.4931509 L80.7825251,58.1734725 C80.7825251,58.1734725 81.6467954,57.1431205 82.6478293,56.628895 C83.6517125,56.1127685 84.0800487,54.3153556 82.8539246,54.719322 C81.6230517,55.1251895 81.0256605,55.5738298 81.0256605,55.5738298 Z" id="Stroke-53" stroke="#231916" stroke-width="0.6"></path>
                            <path d="M76.7902612,48.5216218 C75.4758105,49.6308661 75.4691623,49.6318166 74.8385299,48.3714414 C74.7293089,48.1480717 74.6732738,47.8496118 74.3380129,47.9921882 C74.0369429,48.1233585 74.1357167,48.4161153 74.213596,48.643287 C74.4196912,49.2744251 74.7407059,49.8713449 75.4786598,49.8998602 C76.1805232,49.9302765 76.4939399,49.3970408 76.7902612,48.5216218" id="Fill-54" fill="#181A19"></path>
                            <path d="M79.2276933,67.8608721 C79.2276933,67.8608721 84.3202398,69.8692981 91.8849793,78.5208328 C99.4497187,87.1704666 90.8003675,95.8828339 80.6922041,98.8655318 C80.6922041,98.8655318 72.8881283,139.138607 74.2757095,140.991149 C74.2757095,140.991149 70.7635429,139.980758 59.9506668,123.291717 C54.5750955,115.003277 59.6268029,99.2191212 59.6268029,99.2191212 C59.6268029,99.2191212 71.6658031,76.9753049 79.2276933,67.8608721" id="Fill-55" fill="#2EB5A9"></path>
                            <path d="M69.2070966,63.2762811 C69.2070966,63.2762811 47.7361532,101.189242 52.2151627,114.260644 C52.2151627,114.260644 47.5870428,116.985754 46.1975621,120.847673 C44.8071317,124.711493 37.5529597,127.644764 38.1712454,120.229842 C38.7876315,112.81492 49.1294329,76.8248393 49.1294329,76.8248393 C49.1294329,76.8248393 33.3854673,86.092304 28.600639,76.3600403 C23.8158107,66.6258755 53.2959755,50.717203 53.2959755,50.717203 L54.9960236,58.9039388 C54.9960236,58.9039388 35.7750322,69.2264687 38.5169535,71.4021843 C41.2588747,73.5769493 54.06907,61.3762132 59.472184,60.7574317 C64.8743482,60.1396007 69.062735,61.9322611 69.2070966,63.2762811" id="Fill-56" fill="#2EB5A9"></path>
                            <path d="M85.1928679,84.4349011 C85.1928679,84.4349011 67.6519799,97.6783458 59.1631361,85.6287406 C50.6733425,73.5772345 58.3919411,62.1483118 58.3919411,62.1483118 L51.375206,61.7966234 C51.375206,61.7966234 40.795018,91.188269 57.3101786,98.1393428 C73.8262889,105.090417 85.7123798,97.6764448 88.1807738,94.7393713 C90.6501175,91.8060999 85.1928679,84.4349011 85.1928679,84.4349011" id="Fill-57" fill="#2EB5A9"></path>
                            <path d="M57.8031926,84.4914564 C55.8923004,80.9013831 56.0879484,77.171585 55.7868785,73.5434914 C55.4829592,69.88213 56.1677272,66.2578384 56.3443803,62.5280403 C55.9369386,62.755212 55.9169939,63.0413152 55.8866019,63.2979527 C55.1932862,69.2719031 54.7658998,75.2629625 55.85621,81.2245563 C56.5742192,85.1406542 58.7899803,88.0644205 62.1235943,90.3522961 C64.9462441,92.2932359 67.8448737,92.1696697 70.834679,91.4624909 C75.7078338,90.3133252 79.6492863,87.244131 83.8994067,84.8184315 C83.9915322,84.7642525 84.0228739,84.608369 84.1178486,84.4344258 C83.3855932,84.250027 82.9942972,84.7908668 82.5346194,85.0617619 C79.1031814,87.0616333 75.8227533,89.359014 71.9753259,90.5224373 C69.8763837,91.1573774 67.6881653,91.5005112 65.4866504,91.1241096 C65.4866504,91.1241096 61.662017,90.0899556 57.8031926,84.4914564" id="Fill-58" fill="#FDFDFD"></path>
                            <path d="M80.6912544,71.4591198 C80.6912544,73.0084498 80.6665609,74.5596808 80.7017016,76.1099613 C80.7216463,76.9749247 80.3455462,77.2382157 79.5496578,77.065223 C78.5809152,76.8532595 77.5979265,76.8104866 76.610189,76.8447049 C75.8722352,76.8694181 75.6442957,77.2154035 75.9748079,77.8940671 C76.0517374,78.0566041 76.1391142,78.2134382 76.2036971,78.3797773 C77.2028315,80.9613603 77.1695903,80.9128843 74.9443318,82.4422536 C72.4009078,84.1930915 70.2934179,86.4781157 67.8744108,88.3800846 C67.693009,88.522661 67.5970845,88.7308225 67.809828,89.0682532 C68.6665003,88.733674 69.2876352,88.0407528 69.954358,87.4476351 C72.1511242,85.4895861 74.1959307,83.3461878 76.8827666,82.0097719 C77.4735096,81.7170151 77.6378159,81.1600167 77.4250724,80.5117694 C77.1591431,79.7066881 76.9388017,78.8806956 76.6348825,78.091773 C76.3831993,77.4368721 76.6453297,77.2695825 77.2275249,77.3142565 C78.1183882,77.3826931 79.0083016,77.475843 79.8991649,77.5414282 C80.7036011,77.5994092 81.129088,77.3427717 81.0882488,76.4027181 C81.0179675,74.7602382 81.0673544,73.1111048 81.0673544,71.4638723 C80.9429375,71.4619713 80.8185205,71.4619713 80.6912544,71.4591198" id="Fill-59" fill="#FDFDFD"></path>
                            <path d="M61.247927,65.3508625 C61.7883334,65.2881289 61.8557655,64.6142179 62.3857246,64.5039588 C61.5319015,64.112349 60.8870229,64.4127099 60.2753855,64.9773124 C59.6067632,65.5884898 60.2231494,66.1141214 60.3475663,66.6749218 C60.3665613,66.7585666 60.4311441,66.8308053 60.4634355,66.9154006 C60.770204,67.7033728 61.7550922,68.4115021 61.5024594,69.1196315 C61.3362535,69.5863315 60.1167777,69.6718773 59.374075,69.9399209 C59.0226684,70.0663386 58.6741111,70.31157 58.6057293,70.6432977 C58.121358,73.0262243 57.6863736,75.418656 57.3948011,77.8500585 C58.1109108,77.5069247 57.9304587,76.8159045 58.0729209,76.2855203 C58.3265035,75.3359617 58.5724881,74.3635907 58.6247242,73.3912198 C58.7348949,71.4407749 59.3835725,70.0644376 61.5546955,69.8201568 C62.4189658,69.7241553 62.3325387,69.1272356 62.0238708,68.5208107 C61.6373235,67.7632548 61.2032889,67.0266102 60.9088671,66.2338855 C60.8015457,65.9458813 60.2896317,65.40219 61.0703242,65.1683647 C61.1738467,65.0581057 61.2830677,64.9183808 61.4217308,65.1132352 C61.439776,65.1369979 61.3096606,65.2691187 61.247927,65.3508625" id="Fill-60" fill="#FDFDFD"></path>
                            <path d="M55.5558998,62.4051394 C54.8701821,62.4051394 54.1958613,62.3005834 53.5433847,62.1988789 C53.1378425,62.1351948 52.7313506,62.0715107 52.3229591,62.0344408 C52.1368086,62.0173317 51.9952962,61.8585966 52.0000449,61.6713463 C52.0313866,60.3653467 51.7255679,59.0850108 51.093036,57.866458 C50.4386599,56.5946767 50.0312182,55.2069332 49.8802083,53.739347 L49.802329,53.5853645 C49.5174048,53.0340692 49.1935408,52.4076836 49.2210835,51.4723826 C49.2248825,51.3269547 49.317008,51.1986359 49.4528219,51.148259 C49.4927113,51.1340013 49.53545,51.1263972 49.5772389,51.1263972 C49.6750629,51.1263972 49.7709874,51.1663186 49.8393692,51.2414089 C50.5896698,52.0607478 50.8698453,52.8221057 51.0626441,53.5235815 C51.0920862,53.5701564 51.1386239,53.685168 51.1851615,53.8011301 C51.2801363,54.0378069 51.3551663,54.2127006 51.461538,54.3315143 C51.3855582,53.8610122 51.2411966,53.3990647 51.089237,52.9181071 C51.0284532,52.7213517 50.9667196,52.5255468 50.9097347,52.3278409 C50.9030865,52.3249893 50.8726945,52.2689093 50.8432524,52.2128293 C50.6770465,51.9029633 50.4500569,51.4790362 50.7102877,50.9315429 C50.7577751,50.8336404 50.8461016,50.7623522 50.9524733,50.7385895 C50.9790663,50.7319359 51.0047095,50.7290844 51.0322521,50.7290844 C51.1120309,50.7290844 51.1899102,50.7556987 51.2535433,50.8060756 C51.7569095,51.2071905 52.0228389,51.6073549 52.1178136,52.1035207 L52.2859189,52.4466545 C52.5138584,52.9428203 52.7493958,53.4560953 52.9004056,54.0244998 C52.9184508,54.0929365 52.9345965,54.1756308 52.951692,54.2649786 C52.9839834,54.4313177 53.0504657,54.7782536 53.1463902,54.7782536 C53.1634857,54.7782536 53.1938776,54.7754021 53.2404153,54.7611444 C53.2784052,54.7003118 53.2185711,54.4636351 53.1862796,54.3362668 C53.1520887,54.2012945 53.1197973,54.0682232 53.1074506,53.9522611 C53.0875059,53.7716644 53.0295713,53.5948696 52.9725864,53.4142729 C52.8320238,52.9694346 52.65822,52.4171887 52.9213001,51.7394757 C52.963089,51.6301671 53.0561642,51.5493738 53.1691842,51.5218091 C53.1976766,51.5151555 53.2252193,51.512304 53.252762,51.512304 C53.339189,51.512304 53.4237165,51.5436708 53.4901989,51.6026024 C54.1673689,52.2061757 54.3772631,52.9637315 54.5634136,53.63289 C54.6336949,53.8857255 54.7020768,54.1357094 54.7970515,54.3742872 C54.8426394,54.4950019 54.8834786,54.6024094 54.9100715,54.6299742 C54.8920263,54.5957558 54.8825288,54.4788432 54.8777801,54.4151591 C54.8568856,54.1623236 54.8245942,53.9104387 54.7923028,53.6585538 C54.7400667,53.2507853 54.6849813,52.8278087 54.6821321,52.4019806 C54.6811823,52.085461 54.7315189,51.9058148 54.8540364,51.7822486 C54.9214685,51.7157129 55.0629809,51.6558309 55.1579556,51.6558309 C55.3849453,51.6558309 55.5435531,51.82217 55.683166,51.9685484 L55.769593,52.0559952 C55.8474723,52.1272834 55.890211,52.2299384 55.8854623,52.3354449 C55.867417,52.7213517 55.8664673,52.9257112 56.0421706,53.0720896 C56.1020047,53.1205655 56.1437936,53.1890022 56.1618388,53.2640924 C56.4961499,54.6622915 56.6718532,56.1355807 56.7022452,57.7666545 C56.5797277,58.3493167 56.6490593,58.8549876 56.7221899,59.3891737 L56.7620793,59.6828811 C56.7411848,60.4936654 56.7183909,61.2483697 56.6984462,62.0049751 C56.6936974,62.1779677 56.5645318,62.3233956 56.3926275,62.3471584 C56.1115022,62.3880303 55.8332261,62.4051394 55.5558998,62.4051394" id="Fill-61" fill="#FDFDFD"></path>
                            <path d="M51.0320622,50.3724533 C50.9788763,50.3724533 50.9256905,50.3781564 50.8725046,50.390513 C50.6607109,50.438989 50.4831081,50.5825159 50.3890831,50.7783208 C50.3226008,50.9170951 50.2808119,51.0501664 50.2580179,51.1775346 C50.2076813,51.1195536 50.1563949,51.060622 50.1022593,51.0007399 C49.9645459,50.8505595 49.7726969,50.7697662 49.5770489,50.7697662 C49.4934711,50.7697662 49.4098933,50.7840238 49.328215,50.8144401 C49.0565872,50.9161446 48.873286,51.1718316 48.8647382,51.4617369 C48.8352961,52.4901878 49.1962001,53.1878616 49.4858731,53.7496125 L49.5333605,53.8418119 C49.6938679,55.3303093 50.1117568,56.7380135 50.7765801,58.028805 C51.382519,59.1960303 51.6731418,60.4174346 51.6436996,61.6616511 C51.6351519,62.0371023 51.9181767,62.3545723 52.2904777,62.3887907 C52.684623,62.4258605 53.0749692,62.4866931 53.4890592,62.5513277 C54.1548322,62.6539827 54.8424495,62.7613903 55.5566596,62.7613903 C55.8672271,62.7613903 56.1578499,62.7414296 56.4437239,62.7005577 C56.7865828,62.6511312 57.0449141,62.3612259 57.0544116,62.01429 C57.0743563,61.2586352 57.0962005,60.5048814 57.1199442,59.7492266 C57.1218436,59.7121568 57.1199442,59.6750869 57.1151954,59.638017 L57.075306,59.3405077 C57.0069242,58.8386388 56.9413916,58.3652852 57.0401654,57.931853 C57.0525121,57.875773 57.0591603,57.8177919 57.0582106,57.7598109 C57.0278186,56.1030733 56.8483163,54.6060213 56.5083067,53.181208 C56.4731661,53.0300771 56.3886385,52.8960553 56.2699201,52.7972023 C56.2290809,52.7639345 56.2271814,52.6441703 56.2395281,52.3884834 C56.2490256,52.1765198 56.1663976,51.936041 56.010639,51.7934646 C55.9887948,51.7735039 55.9650511,51.7478402 55.9413074,51.7221764 C55.7808001,51.5539363 55.5376647,51.2991998 55.1587154,51.2991998 C54.9488212,51.2991998 54.7512737,51.3818941 54.6021633,51.5311241 C54.4435555,51.6898591 54.3751737,51.8847135 54.3457315,52.0814689 C54.1899729,51.8229304 53.9905259,51.5710454 53.7264961,51.3362697 C53.5954309,51.2184065 53.4263758,51.1556729 53.252572,51.1556729 C53.1974867,51.1556729 53.1414516,51.1623265 53.0863662,51.1756336 C52.8593765,51.2298126 52.6741758,51.3923497 52.5886985,51.6100163 C52.5364624,51.7449886 52.4984724,51.8761589 52.473779,52.0016261 C52.4652313,51.9835664 52.4576333,51.9655068 52.4500353,51.9483976 C52.2838295,51.2412188 51.8184532,50.8001825 51.4755943,50.5283369 C51.3483281,50.4266324 51.1916198,50.3724533 51.0320622,50.3724533 M51.0320622,51.0853352 C51.4309562,51.4028053 51.6845388,51.730731 51.7681166,52.1708168 C52.0520911,52.8105094 52.3731058,53.4226374 52.5554573,54.1155586 C52.6456833,54.4501378 52.6675275,55.1345044 53.14715,55.1345044 C53.2060344,55.1345044 53.2706172,55.1240488 53.3446975,55.1021871 C53.8423653,54.9501057 53.5052049,54.3218191 53.4615165,53.9140506 C53.3912352,53.27816 52.9315573,52.6945473 53.252572,51.8685548 C54.0949981,52.6194571 54.1215911,53.640304 54.4663494,54.5062179 C54.543279,54.7077258 54.6192588,54.9681653 54.8680927,54.9681653 C54.907982,54.9681653 54.9526202,54.9615118 55.0020071,54.9463036 C55.2717354,54.8664609 55.2489414,54.5927142 55.231846,54.3855032 C55.1796099,53.7220478 55.043796,53.0614439 55.0380975,52.398939 C55.0371477,52.1080831 55.0865346,52.0120817 55.1587154,52.0120817 C55.2612881,52.0120817 55.4113483,52.2116887 55.529117,52.3190962 C55.5120215,52.6916958 55.4835291,53.070949 55.8159407,53.3465966 C56.1625986,54.8018262 56.3183572,56.2808185 56.3458999,57.773118 C56.1958398,58.4318209 56.3269049,59.0800681 56.4085832,59.7273649 C56.3848395,60.4830197 56.3620456,61.2386745 56.3421009,61.9952799 C56.0780711,62.0333002 55.8168905,62.0485084 55.5566596,62.0485084 C54.4786961,62.0485084 53.4254261,61.7776133 52.3560103,61.6797108 C52.3892515,60.2701057 52.0539906,58.9441453 51.409112,57.7018298 C50.7490374,56.4195929 50.3662891,55.0660678 50.2285757,53.6365019 C49.9237068,53.0281761 49.5485565,52.4388604 49.5770489,51.4826481 C50.242822,52.2107381 50.5191985,52.8903522 50.7186455,53.6174918 C50.9617809,54.1146081 51.0472582,54.7438452 51.7472221,54.8664609 C51.8023075,54.9310955 51.8421969,54.9643633 51.8640411,54.9643633 C51.8925335,54.9643633 51.8953827,54.9120853 51.8697396,54.8065788 C51.8279507,53.9083476 51.4974385,53.0804541 51.2514539,52.2287978 C51.089047,51.8828125 50.8088715,51.5529858 51.0320622,51.0853352" id="Fill-62" fill="#181A19"></path>
                            <path d="M58.949063,53.7452402 C59.2434848,53.7452402 59.539806,53.2680846 59.8104841,53.1198051 C61.1752713,52.3774575 61.78216,50.009739 61.8467429,49.744547 L60.9767741,49.5325834 C60.826714,50.1523154 60.2464182,51.8641825 59.3830976,52.3308825 C59.1418618,52.4630033 58.9034751,52.481063 58.6299478,52.386012 C57.2955525,51.91551 53.3170599,50.575292 47.1247057,48.508885 C46.8711231,48.4242897 46.709666,48.2741092 46.6165907,48.040284 C46.2271942,47.0517544 47.1190072,45.0300213 47.4951072,44.3342486 L46.7087163,43.9055689 C46.5482089,44.1983258 45.1720247,46.8150776 45.7846119,48.3663086 C45.9726619,48.8482168 46.333566,49.5962675 46.8340829,49.7645077 C53.0235879,51.8299642 56.9954322,53.1682811 58.3260286,53.6368821 C58.5340233,53.7091208 58.7439175,53.7452402 58.949063,53.7452402" id="Fill-63" fill="#E2BB2F"></path>
                            <polygon id="Fill-64" fill="#E2BB2F" points="55.6212425 52.3904794 58.0506968 47.9753642 57.2662053 47.541932 54.8377007 51.9579977"></polygon>
                            <polygon id="Fill-65" fill="#E2BB2F" points="51.4174698 50.6374553 52.7176742 45.7698977 51.8534039 45.5379734 50.5522497 50.4055311"></polygon>
                            <path d="M59.1842205,47.6416404 C59.1842205,47.6416404 61.0580725,44.9536004 60.0048024,44.5876543 C58.9496329,44.2226588 57.827981,45.891753 57.827981,45.891753 C57.827981,45.891753 58.4785581,43.7673649 57.3056198,43.1809007 C56.1336313,42.5925355 55.3405921,45.1893267 55.3405921,45.1893267 C55.3405921,45.1893267 55.8297121,42.1553013 54.6083367,42.0070219 C53.3879111,41.8568414 53.3138307,44.3547796 53.3138307,44.3547796 C53.3138307,44.3547796 53.903624,42.3577598 52.2615104,42.0070219 C50.6184471,41.6534324 51.2063409,44.2369165 51.2063409,44.2369165 C51.2063409,44.2369165 54.4915177,47.4059141 59.1842205,47.6416404" id="Fill-66" fill="#FDFDFD"></path>
                            <path d="M59.1842205,47.6416404 C59.1842205,47.6416404 61.0580725,44.9536004 60.0048024,44.5876543 C58.9496329,44.2226588 57.827981,45.891753 57.827981,45.891753 C57.827981,45.891753 58.4785581,43.7673649 57.3056198,43.1809007 C56.1336313,42.5925355 55.3405921,45.1893267 55.3405921,45.1893267 C55.3405921,45.1893267 55.8297121,42.1553013 54.6083367,42.0070219 C53.3879111,41.8568414 53.3138307,44.3547796 53.3138307,44.3547796 C53.3138307,44.3547796 53.903624,42.3577598 52.2615104,42.0070219 C50.6184471,41.6534324 51.2063409,44.2369165 51.2063409,44.2369165 C51.2063409,44.2369165 54.4915177,47.4059141 59.1842205,47.6416404 Z" id="Stroke-67" stroke="#181A19" stroke-width="0.6" stroke-linejoin="round"></path>
                            <path d="M70.3284636,51.7500263 L69.5059822,53.5113199 C69.5059822,53.5113199 68.68635,52.337441 65.7525798,51.6321632 C62.820709,50.9297369 43.9340287,42.4759081 36.0748675,41.8884934 C28.2138068,41.3020292 24.8877908,42.7087828 23.9114503,42.1812502 C22.9351098,41.6556186 26.4472764,34.204577 27.5651293,29.0071927 C27.5651293,29.0071927 28.9166201,29.2106016 29.1512077,30.5013931 C29.4332827,32.0497726 36.659912,38.955222 42.9937786,41.3020292 C49.3295447,43.6507374 70.3284636,51.7500263 70.3284636,51.7500263" id="Fill-68" fill="#E2BB2F"></path>
                            <path d="M57.0278186,46.0427889 C56.9784318,46.1730086 57.0458638,46.3203376 57.176929,46.3688135 L58.6784799,46.933416 C58.8095451,46.983793 58.9558062,46.9172573 59.0061428,46.7851366 L59.1970421,46.2699606 C59.2454792,46.1406913 59.1818461,45.9943129 59.0488815,45.9439359 L57.5463808,45.380284 C57.4162654,45.329907 57.270954,45.3973931 57.2187179,45.5285634 L57.0278186,46.0427889 Z" id="Fill-69" fill="#E2BB2F"></path>
                            <path d="M54.5560056,44.9673828 C54.5028197,45.1004541 54.5664528,45.2468325 54.6956185,45.300061 L56.1829232,45.9036343 C56.3130386,45.9568629 56.462149,45.8931787 56.5134353,45.7639095 L56.7195306,45.2563376 C56.7717667,45.1242168 56.7100331,44.9759374 56.5780182,44.9246099 L55.0916632,44.320086 C54.9634473,44.2668575 54.8162364,44.3305416 54.7630506,44.4598109 L54.5560056,44.9673828 Z" id="Fill-70" fill="#E2BB2F"></path>
                            <path d="M51.717495,43.8669783 C51.6595604,43.995297 51.7184448,44.146428 51.8476104,44.2034585 L53.3149704,44.8498048 C53.4431864,44.9068353 53.5932465,44.8460027 53.6492816,44.719585 L53.8705728,44.2186667 C53.9275576,44.0884469 53.8686733,43.9401675 53.7385579,43.8840874 L52.2711979,43.2339391 C52.1429819,43.1788096 51.9948213,43.2367907 51.9368867,43.3679609 L51.717495,43.8669783 Z" id="Fill-71" fill="#E2BB2F"></path>
                            <path d="M35.3074715,0.0641874895 C36.0188324,-0.123062823 36.7064497,0.12311906 37.340881,0.495718667 C38.2583372,1.03085535 38.6515327,2.13344602 38.2716337,2.95563648 C37.5773682,4.45839153 37.1081929,4.65894897 35.6588781,4.22456626 C35.1108737,4.06107868 34.5552714,3.35294933 34.0614027,3.77307439 C33.7204433,4.06202919 33.7812271,4.82623859 33.6587097,5.37848443 C32.4981182,10.6747217 32.0232444,16.075515 31.1665721,21.4173767 C31.0715973,22.0028904 31.3232804,23.1130851 30.3326937,22.9686077 C29.4380315,22.8364869 29.9394982,21.8945323 30.026875,21.3166227 C30.9566778,15.1706302 31.5122802,8.96190412 33.0071829,2.90621 C33.0451728,2.751277 33.0936099,2.58969044 33.0879114,2.43570795 C32.9929366,0.244784238 33.0622682,0.168743502 35.3074715,0.0641874895" id="Fill-72" fill="#2EB5A9"></path>
                            <path d="M1.18095166,41.1096461 C1.17525317,43.4887707 1.21799181,45.2624208 1.59314211,47.0104073 C1.68621737,47.4381364 1.64727772,47.8601625 1.14676074,47.9846792 C0.613952355,48.1168 0.444897287,47.7518044 0.389811927,47.297461 C-0.209478793,42.4489136 -0.236071725,37.6279309 1.16100696,32.8896426 C1.49531811,31.7566356 1.87616688,30.5257262 3.26849683,30.355585 C4.85077629,30.1626317 6.28014639,30.7557494 7.53761218,31.7005555 C7.91561171,31.9838073 8.02008395,32.4543093 7.75605412,32.9019992 C7.45308465,33.4228782 7.00480379,33.9028854 6.40551307,33.8705681 C5.28671043,33.8078344 4.1422646,33.7374968 3.11843671,33.192855 C2.52484448,32.8772859 2.29785481,33.0673878 2.11835251,33.6766642 C1.34430824,36.3038716 1.26927818,39.0080703 1.18095166,41.1096461" id="Fill-73" fill="#2EB5A9"></path>
                            <path d="M21.3529253,20.6366284 C21.493488,21.7848436 21.3529253,22.7572145 19.9871883,23.0613774 C19.0497875,23.2704894 17.779975,22.5176861 17.6394123,21.6479702 C17.5140456,20.8942164 18.3251301,20.0225995 19.3727016,20.0463622 C20.2445699,20.0653724 20.1733388,19.6566535 20.0641179,19.1063086 C19.5759476,16.6568464 19.1846516,14.1807699 18.4267531,11.7987939 C17.9214873,10.212394 17.8217639,8.55185445 17.3962769,6.9559495 C17.2965534,6.58144888 17.3392921,6.18413603 17.8094171,6.09668919 C18.2225573,6.02064845 18.5217278,6.24401811 18.5825117,6.66984624 C19.2017471,11.0231784 20.7545844,15.1797551 21.2921415,19.5501964 C21.3358299,19.9094889 21.3329806,20.2744844 21.3529253,20.6366284" id="Fill-74" fill="#2EB5A9"></path>
                        </g>
                        <g id="man" transform="translate(97.000000, 63.979275)">
                            <path d="M35.1605889,23.4834404 C35.1605889,23.4834404 39.1247573,20.6679461 40.7162324,30.5146611 C42.3064976,40.3585326 45.0337035,82.2566301 45.0337035,82.2566301 L30.9427363,76.5293679 L18.2129522,78.3642528 L24.8034981,26.3915523 C24.8034981,26.3915523 29.8336242,22.4061513 35.1605889,23.4834404" id="Fill-1" fill="#FDFDFD"></path>
                            <polygon id="Fill-3" fill="#181A19" points="33.2814706 28.3449716 33.6355799 31.3505758 31.9465029 31.8847519 32.3207779 59.6757239 31.0737325 60.8675664 29.7496543 59.4250877 30.9120038 31.9753384 29.7028699 31.1450296 31.0967214 27.9135685"></polygon>
                            <path d="M31.4122335,29.9589148 C31.6255864,30.3058247 31.9095191,30.4792796 32.2749211,30.3886931 C32.4983568,30.3314164 32.5689367,30.1270889 32.4592354,29.9057003 C32.3027498,29.5916941 32.0196237,29.4966392 31.7034259,29.5356361 C31.4614378,29.5669148 31.4057805,29.765149 31.4122335,29.9589148" id="Fill-5" fill="#FEFEFE"></path>
                            <path d="M35.1605889,23.4834404 C35.1605889,23.4834404 40.9666901,19.0459192 51.7081386,27.3014798 C62.4479739,35.556228 74.1295462,59.4726964 54.5805374,71.8525845 L48.4041944,66.7399295 C48.4041944,66.7399295 57.6408803,59.1834694 55.6638375,48.0807295 C53.6855848,36.9800207 46.2988979,36.9771772 46.2988979,36.9771772 C46.2988979,36.9771772 48.3166754,77.4019233 51.1430964,82.5255461 C51.1430964,82.5255461 37.5667573,88.4201699 37.3433216,56.1323689 C37.1243224,23.8449741 35.1605889,23.4834404 35.1605889,23.4834404" id="Fill-7" fill="#2EB5A9"></path>
                            <path d="M8.74948314,48.9374831 C10.4442065,42.6736075 17.1138019,37.2343225 17.1138019,37.2343225 C20.1112279,37.2059183 17.0351558,56.7080199 17.0351558,56.7080199 C8.92774771,59.3585898 7.05193661,55.1989215 8.74948314,48.9374831 M17.3860385,63.8253588 C17.3860385,63.8253588 17.7917719,72.8482645 13.8352664,79.6804385 C13.8352664,79.6804385 26.6324039,83.2031577 26.7784034,54.3158044 C26.9264194,25.428451 27.1429988,23.4582955 27.1429988,23.4582955 C27.1429988,23.4582955 5.92104554,22.7478209 1.40111111,46.0874603 C-3.12204983,69.4319743 17.3860385,63.8253588 17.3860385,63.8253588" id="Fill-9" fill="#2EB5A9"></path>
                            <g id="Group-13" transform="translate(0.000000, 74.792381)">
                                <mask id="mask-2" fill="white">
                                    <use xlink:href="#path-1"></use>
                                </mask>
                                <g id="Clip-12"></g>
                                <path d="M39.5785254,0.441152332 C39.5785254,0.441152332 55.5275579,6.20903627 61.0706987,11.8375876 C66.6114196,17.4689824 56.249489,47.967801 56.249489,47.967801 C56.249489,47.967801 54.995184,51.6741306 60.6657719,55.632315 C60.6657719,55.632315 53.4508966,55.8175503 52.1760226,51.8183378 L51.6315494,53.3550591 L49.7585615,52.0149472 C49.7585615,52.0149472 50.352239,49.9172394 49.9698978,47.9422093 C49.5899765,45.9683979 55.7126788,21.3593285 50.2070461,17.2727793 C44.7018168,13.1829803 37.219948,9.80974922 31.2400187,9.66554197 C25.2588794,9.52295959 9.39776927,13.6363192 9.39292951,17.5331648 C9.39212288,21.4291979 11.7256948,37.4406715 12.7585807,40.7164104 C13.7886434,43.9925554 14.2201888,46.7576788 14.4964586,49.0926176 C14.7715184,51.4304 15.3825383,53.8222093 14.934457,53.7434031 C14.4883923,53.6585036 13.1211595,54.2085223 13.1211595,54.2085223 L12.1886987,52.3041741 C12.1886987,52.3041741 7.9111557,55.5616332 5.51990993,54.7244187 C5.51990993,54.7244187 10.4721964,50.7568912 10.0704962,48.8817907 C9.67202245,47.0111585 3.13108405,29.9687047 0.787025971,18.5243358 C-1.55622548,7.08199793 0.812434721,4.32418653 15.030849,1.66143005 C29.2460367,-1.00213886 39.5785254,0.441152332 39.5785254,0.441152332" id="Fill-11" fill="#181A19" mask="url(#mask-2)"></path>
                            </g>
                            <g id="Group-16" transform="translate(24.602124, 0.048340)">
                                <mask id="mask-4" fill="white">
                                    <use xlink:href="#path-3"></use>
                                </mask>
                                <g id="Clip-15"></g>
                                <path d="M1.77143357,2.87033368 C1.77143357,2.87033368 1.09467351,1.79101347 1.10757954,0.901396891 C1.12088889,0.0125927461 4.9741461,0.241699482 8.15427308,1.3835772 C11.3380299,2.52626736 12.6996163,3.27817617 13.0258969,4.48748601 C13.356614,5.6955772 12.7528536,8.52447668 13.1666533,9.34625492 C13.585696,10.1737202 13.5550442,12.9108145 11.3783612,14.0571606 L0.266267575,11.4585865 L1.77143357,2.87033368 Z" id="Fill-14" fill="#070404" mask="url(#mask-4)"></path>
                            </g>
                            <path d="M35.1692602,11.5083482 L33.9464136,4.96296373 C33.9464136,4.96296373 30.6202871,2.87987979 29.3433966,2.85347565 C28.066506,2.82585285 26.5879587,2.23358756 26.2713576,3.21500933 C25.9563698,4.19683731 25.9333809,4.94955855 25.9333809,4.94955855 C25.9333809,4.94955855 24.4826623,8.26835648 24.827092,12.8829886 C25.1711184,17.4939648 26.9872391,15.7029513 27.4252376,17.8522487 C27.8616228,20.0043896 27.4933976,24.9070301 27.4933976,24.9070301 C27.4933976,24.9070301 28.9804144,28.2298902 32.5134407,28.6263585 C36.0468703,29.0224207 37.124524,23.844771 37.124524,23.844771 L35.8706223,13.8668477 C35.8706223,13.8668477 36.2578033,12.6611938 36.9474694,11.8556642 C37.6375388,11.0509472 37.3786115,9.33142798 36.454217,10.1170528 C35.5306291,10.9075523 35.1692602,11.5083482 35.1692602,11.5083482" id="Fill-17" fill="#FDFDFD"></path>
                            <path d="M35.1692602,11.5083482 L33.9464136,4.96296373 C33.9464136,4.96296373 30.6202871,2.87987979 29.3433966,2.85347565 C28.066506,2.82585285 26.5879587,2.23358756 26.2713576,3.21500933 C25.9563698,4.19683731 25.9333809,4.94955855 25.9333809,4.94955855 C25.9333809,4.94955855 24.4826623,8.26835648 24.827092,12.8829886 C25.1711184,17.4939648 26.9872391,15.7029513 27.4252376,17.8522487 C27.8616228,20.0043896 27.4933976,24.9070301 27.4933976,24.9070301 C27.4933976,24.9070301 28.9804144,28.2298902 32.5134407,28.6263585 C36.0468703,29.0224207 37.124524,23.844771 37.124524,23.844771 L35.8706223,13.8668477 C35.8706223,13.8668477 36.2578033,12.6611938 36.9474694,11.8556642 C37.6375388,11.0509472 37.3786115,9.33142798 36.454217,10.1170528 C35.5306291,10.9075523 35.1692602,11.5083482 35.1692602,11.5083482 Z" id="Stroke-19" stroke="#231916" stroke-width="0.6"></path>
                            <path d="M29.0191325,6.84874777 C28.2673562,8.28107109 28.2617098,8.28513326 27.2727851,7.40770321 C27.1001669,7.25049699 26.9452945,7.0108286 26.7085495,7.25334052 C26.4915668,7.47513534 26.6795109,7.6957115 26.8267203,7.86835399 C27.2284206,8.34403482 27.7148167,8.75228352 28.3645547,8.51748974 C28.983641,8.2952887 29.0695467,7.71764725 29.0191325,6.84874777" id="Fill-21" fill="#181A19"></path>
                            <path d="M23.4491311,54.4993741 C23.8459916,53.9855088 23.6705502,53.6775959 23.599567,53.3282487 C22.9542654,50.166657 22.3299361,46.9953161 21.687861,43.8325057 C21.2756746,41.7949181 21.7177062,40.150143 22.8094759,38.766972 C24.1992942,37.001144 24.1992942,36.1241202 22.8510171,34.2884228 C20.7945216,31.4948642 20.8356596,29.8898984 23.037348,27.3035109 C23.3946837,26.8834819 23.7907376,26.5223544 23.9254443,25.8520953 C23.9419802,25.7781637 23.8105,25.5506819 23.7592792,25.5578215 C23.2309385,25.6335503 23.0260552,26.2729368 22.7368794,26.7664912 C22.2920246,27.5285554 21.7866728,28.2300933 21.3926355,29.039685 C20.4488819,30.980999 20.7170854,32.8772228 22.0661691,34.3156394 C22.3549415,34.6239585 22.6348411,34.9672124 22.8768292,35.349057 C23.620136,36.525057 23.6144896,36.9723026 22.7481722,38.0248124 C21.3736798,39.6939606 20.8457424,41.7092062 21.3510942,44.2025699 C22.0387437,47.5810819 22.7267966,50.9571565 23.4491311,54.4993741" id="Fill-23" fill="#FDFDFD"></path>
                            <path d="M40.7085291,54.4993741 C40.310862,53.9855088 40.4846901,53.6775959 40.5580932,53.3282487 C41.2046047,50.166657 41.8277241,46.9953161 42.4649594,43.8325057 C42.8795657,41.7949181 42.4351142,40.150143 41.3473777,38.766972 C39.9551395,37.001144 39.9551395,36.1241202 41.3038199,34.2884228 C43.3591055,31.4948642 43.3220006,29.8898984 41.1170857,27.3035109 C40.7613632,26.8834819 40.3645027,26.5223544 40.229796,25.8520953 C40.2148734,25.7781637 40.3471602,25.5506819 40.3975744,25.5578215 C40.9251085,25.6335503 41.1299917,26.2729368 41.4199742,26.7664912 C41.8652323,27.5285554 42.3693741,28.2300933 42.7634114,29.039685 C43.7067617,30.980999 43.4385582,32.8772228 42.0914911,34.3156394 C41.801912,34.6239585 41.5220125,34.9672124 41.2800244,35.349057 C40.5367176,36.525057 40.5407507,36.9723026 41.4070681,38.0248124 C42.7839804,39.6939606 43.3119178,41.7092062 42.8057594,44.2025699 C42.1148833,47.5810819 41.4292504,50.9571565 40.7085291,54.4993741" id="Fill-25" fill="#FDFDFD"></path>
                            <line x1="22.1139617" y1="51.298623" x2="32.2052689" y2="71.5400406" id="Stroke-27" stroke="#DC9518" stroke-width="0.9" stroke-linecap="round"></line>
                            <path d="M30.8415046,72.1650877 C30.9326535,73.0425177 31.7118551,73.6762172 32.5813991,73.5835996 C33.4505397,73.490982 34.0805154,72.7049509 33.9881566,71.8303644 C33.8962011,70.9545592 33.1161928,70.3204535 32.2486654,70.4134773 C31.3775083,70.5056887 30.7491458,71.2905011 30.8415046,72.1650877" id="Fill-29" fill="#DC9518"></path>
                            <line x1="53.0371373" y1="74.2328978" x2="30.5887077" y2="75.5892584" id="Stroke-31" stroke="#DC9518" stroke-width="0.9" stroke-linecap="round"></line>
                            <path d="M30.5551923,74.0754073 C29.7207367,73.8170528 28.8338503,74.2870466 28.5757297,75.1279171 C28.3163991,75.9675689 28.7842428,76.8596228 29.6211183,77.1220394 C30.4555739,77.3816124 31.342057,76.9120249 31.5997743,76.0719668 C31.857895,75.2278466 31.3892447,74.336199 30.5551923,74.0754073" id="Fill-33" fill="#DC9518"></path>
                            <path d="M46.3151111,75.9596883 C46.2396915,75.9515639 46.182421,75.8890064 46.1800011,75.8126375 C46.1787912,75.7768904 46.1751614,75.7419556 46.1719348,75.7082396 C46.1650785,75.639995 46.1578189,75.5701256 46.1670951,75.4970064 C46.1763713,75.4299805 46.1912939,75.3621422 46.2070231,75.2943038 C46.2695367,75.0213256 46.2784096,74.910022 46.1287803,74.8230914 C46.0832059,74.7966873 46.0424712,74.7832821 46.0081896,74.7832821 C45.9162341,74.7832821 45.8275051,74.8905235 45.7339364,75.0038582 C45.6847321,75.0635722 45.6351246,75.1224738 45.5839038,75.1712199 L45.4943682,75.2549007 C45.2257614,75.5071619 44.921663,75.7927328 44.4800347,75.7927328 C44.4473663,75.7927328 44.413488,75.791108 44.3792063,75.7882645 C44.3300021,75.7833898 44.2860409,75.7545484 44.2618421,75.7110831 C44.1319751,75.4791328 44.1807761,75.2248406 44.2235273,75.0010147 C44.2844277,74.6861961 44.290074,74.5582375 44.1053565,74.4611515 C44.0448594,74.4290603 43.9924287,74.4128116 43.9488708,74.4128116 C43.8399762,74.4128116 43.7581035,74.5216779 43.6358995,74.7008199 C43.4987729,74.9027101 43.327768,75.1537525 43.0143934,75.1537525 L43.0139901,75.1537525 C42.9333274,75.1537525 42.853068,75.0895702 42.8490349,75.0087328 C42.8179798,74.3486292 42.8341123,74.3002893 43.056338,73.8640116 L43.0877965,73.8022665 C44.1985219,71.6099101 45.8799359,69.8473318 47.5060959,68.1424365 C47.7742994,67.8609277 48.0425029,67.5798251 48.3082865,67.2966914 C48.4446064,67.1528904 48.5853629,67.0046209 48.7938759,67.0046209 C48.9112402,67.0046209 49.0342508,67.0537733 49.1693608,67.1553277 C49.823132,67.6501007 50.508765,68.1302499 51.1722157,68.5945567 L51.6912801,68.9585277 C52.026837,69.192509 52.1930021,69.4171474 52.2143778,69.6649401 C52.2357534,69.9176075 52.1062897,70.1731183 51.8070311,70.4700634 C50.8983658,71.3799909 50.2292687,72.3638499 49.7630383,73.4776987 C49.5210502,74.0459971 49.2000126,74.5614873 48.8604227,75.1074437 C48.7128099,75.3438624 48.5639872,75.5827183 48.4216176,75.8276676 C48.3982254,75.8678831 48.357894,75.8946935 48.3123196,75.901193 C48.3054633,75.9024116 48.2982036,75.9028178 48.290944,75.9028178 C48.2530325,75.9028178 48.2155244,75.888194 48.1872924,75.8613836 C47.9690998,75.6538064 47.9799893,75.3913898 47.9888622,75.1809691 C48.000155,74.915709 47.9872489,74.8604634 47.8118076,74.8255287 C47.7791392,74.818623 47.749294,74.8157795 47.7206587,74.8157795 C47.5423941,74.8157795 47.444389,74.9457691 47.2995994,75.1586272 C47.2245831,75.2687121 47.1471469,75.3824531 47.0455119,75.4722272 C47.003164,75.509193 46.9640426,75.5632199 46.9229046,75.6209028 C46.8184464,75.7651101 46.6752701,75.9637505 46.3869009,75.9637505 C46.3639121,75.9637505 46.3401166,75.9621256 46.3151111,75.9596883" id="Fill-35" fill="#FDFDFD"></path>
                            <path d="M48.7937146,66.8523299 C48.5202681,66.8523299 48.3424068,67.0404087 48.1992305,67.1911154 C47.9330436,67.4750616 47.6652434,67.7557579 47.3974433,68.0368605 C45.7632169,69.749474 44.07414,71.520989 42.9533318,73.7332502 L42.9218733,73.794589 C42.6814985,74.2666139 42.6665759,74.3466388 42.6984376,75.0156792 C42.7056973,75.1745103 42.8331443,75.3004377 42.9904366,75.3057185 C42.9936631,75.3061248 43.0110056,75.3061248 43.0146354,75.3061248 C43.4074628,75.3061248 43.6115394,75.0063362 43.7607654,74.7873849 C43.8063398,74.7207652 43.912008,74.5651838 43.9487095,74.5651838 C43.9535493,74.5651838 43.9797646,74.5668087 44.034212,74.5956502 C44.1136647,74.6374906 44.1374602,74.6496771 44.0757532,74.9718077 C44.0293722,75.209445 43.9729083,75.5051714 44.1302006,75.786274 C44.1790015,75.8732046 44.2661172,75.9304812 44.3653323,75.9398242 C44.4040504,75.9434802 44.4427685,75.9451051 44.4802767,75.9451051 C44.9811921,75.9451051 45.3082793,75.6375983 45.5974551,75.366245 L45.6849741,75.2845952 C45.7482943,75.2248812 45.7999185,75.1623237 45.8499293,75.1017973 C45.897117,75.0445206 45.9761665,74.9490595 46.0124647,74.9352481 C46.0124647,74.9364667 46.026984,74.9397165 46.052796,74.9551527 C46.1020003,74.983588 46.1205527,74.9937434 46.0596524,75.2602222 C46.0431165,75.3325289 46.0273873,75.4048356 46.0173045,75.4742989 C46.0060117,75.5685413 46.0140779,75.6505973 46.0213376,75.7233103 C46.0245641,75.7541828 46.0281939,75.7854616 46.0290005,75.8175527 C46.033437,75.9694781 46.1487847,76.0949994 46.2988173,76.1108419 C46.3298724,76.1144978 46.358911,76.1161227 46.3867396,76.1161227 C46.7521417,76.1161227 46.9356493,75.8618305 47.0453506,75.7103113 C47.0812455,75.6599403 47.1155271,75.6128191 47.1441624,75.5876336 C47.2611233,75.4844543 47.3478357,75.3573082 47.424062,75.2447859 C47.5680449,75.0335527 47.6277353,74.9681517 47.7204974,74.9681517 C47.7398564,74.9681517 47.7600221,74.9701828 47.781801,74.9746512 C47.8281821,74.9839942 47.8439113,74.9945559 47.8439113,74.9945559 C47.8447179,75.0099921 47.8406848,75.108703 47.8378616,75.1745103 C47.8285854,75.390618 47.8148727,75.7164046 48.0834795,75.9719154 C48.1399434,76.0259424 48.2141531,76.0551901 48.291186,76.0551901 C48.305302,76.0551901 48.3194179,76.0543776 48.3335339,76.0523465 C48.4250861,76.0393476 48.5053455,75.9849144 48.5517265,75.9048895 C48.6940962,75.661159 48.8417089,75.4239279 48.9881117,75.1883217 C49.3164089,74.6614574 49.6559989,74.1167196 49.9016168,73.5382657 C50.3609909,72.4418844 51.0191985,71.4738678 51.9141512,70.5777517 C52.1234709,70.3705807 52.3985307,70.0476377 52.3646524,69.6519818 C52.3315807,69.2624191 52.0133663,68.9979714 51.7766213,68.8326408 L51.2583634,68.4694823 C50.596526,68.005988 49.9116996,67.5266512 49.261155,67.0339092 C49.097813,66.9116377 48.9453605,66.8523299 48.7937146,66.8523299 M48.7937146,67.1569932 C48.8735707,67.1569932 48.9655262,67.1919279 49.0792606,67.2772336 C49.9024234,67.9007776 50.7578514,68.4873559 51.6048097,69.0832771 C52.1658188,69.4748709 52.2331722,69.8339673 51.7012017,70.3616439 C50.8227848,71.2406989 50.1149696,72.2448688 49.6237338,73.4184315 C49.2809173,74.2243673 48.7545932,74.9547465 48.291186,75.7505268 C47.9173144,75.3946802 48.4182297,74.7918533 47.8414914,74.6760812 C47.7983369,74.6671445 47.7584088,74.6634885 47.7204974,74.6634885 C47.3179905,74.6634885 47.205466,75.1282015 46.9457321,75.3577144 C46.7710974,75.5104522 46.6948711,75.8114595 46.3867396,75.8114595 C46.3689938,75.8114595 46.3504414,75.8102408 46.3314857,75.8082097 C46.3282592,75.7038118 46.3060769,75.6055072 46.3169664,75.5161393 C46.3572977,75.2248812 46.5343524,74.8824398 46.2040386,74.6911113 C46.1310389,74.6488647 46.0665087,74.6309911 46.0084316,74.6309911 C45.7797528,74.6309911 45.6454494,74.9043755 45.4804942,75.0599569 C45.1840588,75.3333413 44.9045625,75.6404419 44.4802767,75.6404419 C44.4520447,75.6404419 44.4230062,75.6392232 44.3935643,75.6363797 C44.1531894,75.2070077 44.7025024,74.6033683 44.1753717,74.3259217 C44.0890626,74.2804253 44.0144496,74.2605206 43.9487095,74.2605206 C43.5449927,74.2605206 43.4683631,75.0014616 43.0146354,75.0014616 C43.0097957,75.0014616 43.0049559,75.0014616 43.0005194,75.0014616 C42.969061,74.3360771 42.983177,74.3429828 43.2227452,73.8717704 C44.5024589,71.3450968 46.521043,69.4220626 48.4182297,67.4015362 C48.5460801,67.2666719 48.6517483,67.1569932 48.7937146,67.1569932" id="Fill-37" fill="#181A19"></path>
                            <path d="M28.3290631,62.3454674 C28.1374892,62.3190632 27.953175,62.2959088 27.7737004,62.2735668 C27.3941824,62.2264456 27.0352334,62.1813554 26.6799142,62.1131109 C26.2895067,62.0371482 25.9007125,61.9510301 25.511515,61.8645057 C24.4318448,61.6252435 23.3150697,61.3774508 22.2116039,61.3774508 C21.4719269,61.3774508 20.7996033,61.4863171 20.155915,61.7109554 C20.0837219,61.7357347 20.0147553,61.7479212 19.9510317,61.7479212 C19.7421153,61.7479212 19.598939,61.6171192 19.5775634,61.4062922 C19.4569727,60.3440332 19.3509012,59.2622756 19.2625756,58.1922984 C19.2347469,57.877886 19.4981107,57.777144 19.6554029,57.7166176 C19.6921045,57.7028062 19.7279994,57.689401 19.7598611,57.6735585 C21.3255241,56.8993078 22.9097396,56.4029098 24.4701595,56.1977699 C24.7920037,56.1563358 25.0723066,56.1360249 25.327604,56.1360249 C26.1858552,56.1360249 26.8593887,56.3626943 27.4478231,56.849343 C27.4933976,56.886715 27.5131599,56.9472415 27.4982373,57.0045181 C27.4841213,57.0617948 27.4381436,57.1052601 27.3804698,57.1166342 C27.2788348,57.1365389 27.1776031,57.1548187 27.0755648,57.1730984 C26.8319634,57.2169699 26.5806991,57.2624663 26.3419375,57.3286798 L26.2959598,57.3412725 C25.9967011,57.4208912 25.9075689,57.4745119 25.9353975,57.6532477 C25.9632261,57.831171 26.0797837,57.8892601 26.4161472,57.8921036 L26.4185671,57.8921036 C26.7795327,57.8921036 27.1203326,57.8734176 27.4954141,57.8352332 C27.537762,57.8307648 27.5793033,57.8283275 27.6184247,57.8283275 C28.013672,57.8283275 28.1419257,58.0769326 28.1806438,58.2853223 C28.2665495,58.7630342 27.8640427,58.8519959 27.6478666,58.9003358 C27.5188063,58.9263337 27.396199,58.9632995 27.2735917,59.0022964 C27.2308405,59.0157016 27.185266,59.0278881 27.138885,59.0400746 C26.8698749,59.1111627 26.7924387,59.1534093 26.799295,59.2959917 C26.8093779,59.4731026 26.8763279,59.5194114 27.1231558,59.5194114 L27.3264258,59.5161617 C27.802739,59.5230674 28.3197869,59.5787192 28.6589736,60.1518922 C28.6807525,60.1884518 28.6863989,60.2327295 28.6738962,60.2733513 C28.6617968,60.3143793 28.6331615,60.3485016 28.5944434,60.3667813 C28.364958,60.4784912 28.1306329,60.5325181 27.8789653,60.5325181 C27.6906179,60.5325181 27.5143699,60.5032705 27.3586908,60.4772725 C27.2820613,60.465086 27.2026085,60.4545244 27.1279955,60.4545244 C26.9456978,60.4545244 26.8964936,60.5170819 26.8735047,60.625542 C26.8525324,60.7214093 26.8614053,60.7953409 26.9017366,60.851399 C26.961427,60.9346736 27.0949238,60.9911378 27.2780281,61.0098238 C28.0140753,61.0845679 28.3903668,61.4428518 28.4992614,62.1720124 C28.5061178,62.2191337 28.4903885,62.2674736 28.4569135,62.3015959 C28.4286816,62.3308435 28.3895602,62.346686 28.3496321,62.346686 C28.3427758,62.346686 28.3359195,62.3462798 28.3290631,62.3454674" id="Fill-39" fill="#FDFDFD"></path>
                            <path d="M25.327483,55.983612 C25.0661359,55.983612 24.77938,56.0043291 24.4510828,56.046982 C22.874127,56.254153 21.2733757,56.7550193 19.6931934,57.536582 C19.6649615,57.5503934 19.633503,57.5621737 19.6016412,57.5743602 C19.4435423,57.6348866 19.0741072,57.7766566 19.1120186,58.206841 C19.2003443,59.2768182 19.3064158,60.3602006 19.4274098,61.4253032 C19.4560451,61.7080307 19.666978,61.9001716 19.9509107,61.9001716 C20.0311701,61.9001716 20.1162693,61.8851416 20.2037883,61.8554877 C20.8325541,61.6361302 21.4887451,61.5297011 22.2114829,61.5297011 C23.2992194,61.5297011 24.4071216,61.7754628 25.4787256,62.0135063 C25.8622768,62.0984058 26.2587339,62.186555 26.6507547,62.2625177 C27.0117202,62.3319809 27.3726858,62.3770711 27.7554303,62.4245985 C27.9340982,62.4473467 28.1176059,62.4700949 28.3087765,62.4964991 C28.3224891,62.4981239 28.3357985,62.4993426 28.3495111,62.4993426 C28.4297705,62.4993426 28.50761,62.4668452 28.5644772,62.4083498 C28.6314273,62.3401053 28.6628857,62.2442379 28.6487697,62.149183 C28.4926874,61.0991105 27.8001981,60.9094068 27.2928298,60.8582234 C27.1444104,60.8431934 27.0508416,60.7989156 27.0246263,60.7623561 C27.0080904,60.7392017 27.0137368,60.6932991 27.0209964,60.6591768 C27.0266428,60.6335851 27.0326925,60.6213985 27.0347091,60.6189612 C27.0355157,60.6189612 27.0585046,60.6067747 27.1282778,60.6067747 C27.1948246,60.6067747 27.2742773,60.6181488 27.3359843,60.627898 C27.4956964,60.6547084 27.6783975,60.6847685 27.8788443,60.6847685 C28.1539041,60.6847685 28.4096048,60.6258669 28.6604658,60.5040017 C28.7366921,60.4670359 28.7943659,60.3996037 28.8185647,60.3175478 C28.8435702,60.2354918 28.8322774,60.1473426 28.7891228,60.073411 C28.3777431,59.3795913 27.707436,59.3694359 27.3476804,59.3637488 L27.3263048,59.3637488 C27.2916198,59.3637488 27.2561282,59.3645612 27.2202333,59.3653737 C27.1879682,59.3661861 27.1557032,59.3674048 27.1230348,59.3674048 C27.0056705,59.3674048 26.968969,59.3539996 26.9588862,59.3487188 C26.9600961,59.3470939 26.9524332,59.3280017 26.9500133,59.2845364 C26.9492066,59.270725 26.9512232,59.2634131 26.9512232,59.2630068 C26.9750187,59.2410711 27.1064989,59.2061364 27.1774821,59.1874504 C27.226283,59.1744514 27.273874,59.1618587 27.3190451,59.147641 C27.4525419,59.1053944 27.5634531,59.0724908 27.6743643,59.0501488 C27.8885238,59.0026213 28.4418699,58.8799436 28.3293455,58.2584307 C28.2611855,57.8879602 28.0022582,57.6763208 27.6187071,57.6763208 C27.5743426,57.6763208 27.5279615,57.6787581 27.4795639,57.684039 C27.1093221,57.721411 26.7729586,57.740097 26.4519211,57.740097 L26.4160262,57.7396908 C26.1014417,57.7368473 26.0933754,57.6852576 26.0853091,57.6304182 C26.0804694,57.6003581 26.0824859,57.5849219 26.0836959,57.5812659 C26.1099112,57.5483623 26.2615571,57.5077405 26.3345569,57.4886483 L26.3809379,57.4760555 C26.6140531,57.4110607 26.8512015,57.3684079 27.1020625,57.3233177 C27.2045041,57.3046317 27.307349,57.2863519 27.4097907,57.266041 C27.524735,57.2436991 27.6166905,57.1563623 27.6453258,57.0418089 C27.6735577,56.9272555 27.6344363,56.8066089 27.5436908,56.7314587 C26.9350907,56.228155 26.2103363,55.983612 25.327483,55.983612 M25.327483,56.2882752 C26.0312651,56.2882752 26.7213345,56.4454815 27.3521168,56.9670649 C27.0004275,57.0357156 26.6459149,57.0860866 26.3018885,57.181954 C26.0574805,57.2485737 25.7291833,57.3119436 25.7864538,57.6771333 C25.8384813,58.0155125 26.1474194,58.0419167 26.4148163,58.044354 C26.427319,58.044354 26.4398217,58.0447602 26.4519211,58.0447602 C26.806837,58.0447602 27.1601396,58.0228245 27.510619,57.9870773 C27.5481272,57.9830151 27.5844254,57.980984 27.6187071,57.980984 C27.8336732,57.980984 27.9861257,58.0638524 28.0317001,58.3128638 C28.0909872,58.6402752 27.8530322,58.6987706 27.6150772,58.7511726 C27.4840004,58.777983 27.3557467,58.8165737 27.2282996,58.8567892 C26.9802618,58.9355954 26.6322022,58.9595623 26.6479315,59.3028162 C26.6676938,59.6338835 26.8915328,59.6716618 27.1230348,59.6716618 C27.1920014,59.6716618 27.2613713,59.668412 27.3263048,59.668412 L27.3428406,59.668412 C27.810281,59.6757239 28.23739,59.7366566 28.5289856,60.2298048 C28.2934506,60.3439519 28.0796944,60.3801053 27.8788443,60.3801053 C27.7070327,60.3801053 27.5440941,60.3537011 27.3835753,60.3268908 C27.2980728,60.3134856 27.2105538,60.3021115 27.1282778,60.3021115 C26.9379139,60.3021115 26.7753785,60.3622317 26.725771,60.5933695 C26.6418818,60.9739954 26.9375106,61.1279519 27.2625812,61.161668 C27.851419,61.2209758 28.2406165,61.4614566 28.3495111,62.1946794 C27.7534138,62.1122172 27.2250731,62.0630649 26.7084285,61.9635416 C25.2113288,61.6726897 23.7243119,61.2250379 22.2114829,61.2250379 C21.5165738,61.2250379 20.8160182,61.3196866 20.1065897,61.5666669 C20.0517391,61.5857592 19.9985017,61.5955084 19.9509107,61.5955084 C19.8315299,61.5955084 19.7423977,61.5337633 19.7278784,61.3907747 C19.606481,60.3216099 19.5020228,59.252039 19.4132938,58.1796245 C19.3907083,57.924926 19.6572985,57.8940535 19.8266902,57.8099664 C21.3056408,57.0783685 22.861221,56.5628783 24.4898009,56.3488017 C24.7692972,56.3126483 25.0496,56.2882752 25.327483,56.2882752" id="Fill-41" fill="#181A19"></path>
                            <path d="M40.643515,101.219762 C41.3404407,100.781859 41.5304014,100.02792 41.809091,99.332475 C34.2852776,100.673806 20.4689669,99.6749165 18.5165263,97.4480315 C19.5933733,97.7185724 20.4580775,97.8952771 21.3026159,98.160131 C22.4657721,98.5301952 22.7545446,98.1288522 22.6577493,96.9581331 C22.400032,93.8607237 22.5573242,90.7543776 22.7952792,87.6663113 C22.8908645,86.4155673 22.4702085,85.9195755 21.2522018,85.7241849 C19.8285051,85.493047 18.2471128,85.5361061 16.7709854,83.9522636 C25.1796686,86.5455569 33.1225248,86.1758989 41.0718339,83.9932916 C39.5658613,84.6684253 38.0990101,85.4804543 36.4381651,85.5901331 C34.9636509,85.690875 34.7224695,86.372102 34.6849613,87.755273 C34.5821164,91.294647 35.6549303,94.7580584 35.2209649,98.3002761 C35.0898881,99.3763465 35.8323882,99.382846 36.5748884,99.3552232 C38.318816,99.2853538 40.0635502,99.2154844 41.809091,99.1464274 C42.0857641,97.1750533 42.589906,95.2491755 42.4902875,93.2095569 C42.3495311,90.3765952 42.4305971,87.5310408 42.407205,84.6911735 C42.4047851,83.9806989 42.3212992,83.2856605 41.8365163,82.711675 C38.3555175,83.4875507 34.8773418,84.1899009 31.293498,84.4068211 C26.1976319,84.7204211 21.2719641,83.7576854 16.3297604,82.8010429 C16.5834446,87.9969724 17.2493152,93.1559362 17.9293018,98.3079942 C17.9893955,98.783675 18.1906489,99.2435134 18.3277755,99.709445 C25.2212099,100.987812 32.1561856,101.409059 39.1443987,100.746925 C39.7118608,100.69371 40.2720633,100.648214 40.643515,101.219762" id="Fill-43" fill="#E2BB2F"></path>
                            <path d="M40.643515,101.219762 C40.2720633,100.648214 39.7118608,100.69371 39.1443987,100.746925 C32.1561856,101.409059 25.2212099,100.987812 18.3277755,99.709445 C19.0376073,101.276226 19.3199268,102.953093 19.4590699,104.645801 C20.1362333,112.886738 22.0330167,120.946908 23.1082505,129.128537 C23.1852834,129.70171 23.294178,130.434121 23.9479492,130.36547 C24.6545545,130.291132 24.5242842,129.509569 24.4811297,128.959957 C24.0657168,124.101188 22.8908645,119.365503 22.0991601,114.566042 C21.3510136,110.051745 20.4241991,105.567915 19.5397326,100.869602 C22.4694019,101.465524 25.3482537,101.885147 28.2617904,101.947704 C29.146257,101.969234 29.2781405,102.471725 29.2160302,103.203729 C28.5199111,111.887849 29.3551734,120.545565 29.6415259,129.213437 C29.6564485,129.709428 29.6508021,130.202983 29.6491889,130.69735 C29.646769,131.131596 29.6439458,131.6349 30.1940654,131.66171 C30.7203896,131.688114 30.8619526,131.170187 30.8720354,130.759907 C30.901074,129.345457 30.894621,127.93507 30.8692122,126.525901 C30.7284558,118.976347 30.4699319,111.429636 29.850039,103.90811 C29.7286417,102.411605 30.0839609,101.933486 31.6286516,102.00823 C33.7863788,102.112628 35.9638684,101.933486 38.1304686,101.838025 C38.7277759,101.809184 39.3170169,101.64954 39.0580896,102.602121 C36.9648925,110.341379 38.1917722,118.340616 37.22019,126.164773 C37.070964,127.351335 36.8810033,128.537491 36.7434734,129.727302 C36.6950758,130.126614 36.602717,130.666071 37.1673559,130.755439 C37.7920885,130.852931 37.7158623,130.279352 37.7928952,129.89182 C38.4789314,126.402817 38.9411287,122.88741 39.1944096,119.339911 C39.2190117,118.993001 39.3029009,118.652997 39.3601714,118.308931 C39.3029009,114.194759 39.5848171,110.103335 40.1486493,106.033035 C40.6866695,104.470315 40.3422398,102.808479 40.643515,101.219762" id="Fill-45" fill="#090707"></path>
                            <path d="M42.0011892,81.8343668 C42.8400813,79.3470964 40.6710613,79.2313244 39.4018337,78.9173181 C32.6624651,77.2550756 25.9331793,77.8091565 19.2829429,79.5587358 C18.0697759,79.8808663 16.6347864,80.1912166 16.5944551,81.9558259 C17.7305892,82.2653637 18.8582538,82.6472083 20.0129404,82.879971 C27.4230194,84.3809451 34.7596953,84.0848124 42.0011892,81.8343668" id="Fill-47" fill="#E2BB2F"></path>
                            <path d="M25.4684814,98.7925712 C27.9762848,98.8746272 30.4780385,99.096422 32.9769689,99.3052178 C34.0489762,99.3990541 34.4635825,99.0395515 34.4926211,97.9183909 C34.5865931,94.2620261 33.747701,90.6304406 34.2345004,86.9671702 C34.3417818,86.1722023 33.8315903,86.0353069 33.172576,86.1490479 C30.1807964,86.6669753 27.1882102,86.5097691 24.195624,86.1990126 C23.46482,86.1226437 23.1929867,86.3972468 23.2159755,87.1377816 C23.3022846,90.3663992 23.3591518,93.599079 23.4325549,97.2038541 C23.3353563,98.3047038 24.088746,98.747481 25.4684814,98.7925712 L25.4684814,98.7925712 Z M41.8091314,99.3328406 C34.2853179,100.673765 20.4690073,99.6748759 18.5165666,97.4479909 C19.5934136,97.7185318 20.4581178,97.8956427 21.3026563,98.1600904 C22.4658124,98.5301546 22.7545849,98.1288116 22.6577896,96.9580924 C22.4000723,93.8606831 22.5573646,90.754337 22.7953195,87.6662707 C22.8909048,86.4155266 22.4702489,85.9195349 21.2522421,85.7241442 C19.8285454,85.4930064 18.2471532,85.5360655 16.7710257,83.952223 C25.179709,86.5455163 33.1225651,86.1758582 41.0718743,83.993251 C39.5659017,84.6683847 38.0990504,85.4804137 36.4382054,85.5904987 C34.9636913,85.6908344 34.7225098,86.3720613 34.6850016,87.7556385 C34.5821567,91.2946064 35.6549706,94.7580178 35.2210053,98.3002354 C35.0899284,99.3763059 35.8324285,99.3828054 36.5749287,99.3551826 C38.3188563,99.2853132 40.0635905,99.2158499 41.8091314,99.1463867 L41.8091314,99.3328406 Z" id="Fill-49" fill="#090707"></path>
                            <path d="M42.0011892,81.8343668 C34.7596953,84.0848124 27.4230194,84.3809451 20.0129404,82.879971 C18.8582538,82.6472083 17.7305892,82.2653637 16.5944551,81.9558259 C16.5061294,82.2365223 16.4174005,82.5208746 16.3298814,82.8011648 C21.2720851,83.7578073 26.1973496,84.720543 31.293619,84.406943 C34.8774628,84.1896166 38.3556385,83.4872663 41.8366373,82.7117969 C41.8906813,82.4209451 41.9479519,82.1288746 42.0011892,81.8343668" id="Fill-51" fill="#090707"></path>
                            <path d="M23.4325952,97.2040166 C23.3353967,98.3044601 24.0887863,98.7476435 25.4685218,98.7927337 C27.9763251,98.8743834 30.4780788,99.0961782 32.9770093,99.3049741 C34.0490166,99.3992166 34.4636228,99.039714 34.4926614,97.9185534 C34.5866335,94.2617824 33.7477414,90.6306031 34.2345408,86.9673326 C34.3418222,86.1719585 33.8316306,86.0350632 33.172213,86.1492104 C30.1804334,86.6671378 27.1882506,86.5095254 24.1956644,86.1987689 C23.4648603,86.1224 23.193027,86.3970031 23.2160159,87.137944 C23.302325,90.3665617 23.3587888,93.5988352 23.4325952,97.2040166" id="Fill-53" fill="#E2BB2F"></path>
                        </g>
                    </g>
                </g>
            </g>
        </g>
    </g>
</svg>