<?xml version="1.0" encoding="UTF-8"?>
<svg width="298px" height="41px" viewBox="0 0 298 41" version="1.1" xmlns="http://www.w3.org/2000/svg" xmlns:xlink="http://www.w3.org/1999/xlink">
    <title>Group 28</title>
    <defs>
        <polygon id="path-1" points="0.4584375 0.11725 36.3765625 0.11725 36.3765625 28.125 0.4584375 28.125"></polygon>
        <polygon id="path-3" points="0 39.375 295.751875 39.375 295.751875 0.39875 0 0.39875"></polygon>
    </defs>
    <g id="2021桃園管樂音樂節" stroke="none" stroke-width="1" fill="none" fill-rule="evenodd">
        <g id="01_Home" transform="translate(-40.000000, -20.000000)">
            <g id="Group-28" transform="translate(40.000000, 20.000000)">
                <polygon id="Fill-1" fill="#231916" points="6.8378125 1.1815 6.8378125 8.232125 2.7290625 8.232125 2.7290625 11.675875 6.7615625 11.675875 0.6246875 26.85025 4.5459375 29.034 6.8378125 23.364 6.8378125 39.60025 12.3890625 39.60025 12.3890625 16.983375 15.2215625 19.71275 17.7303125 16.872125 12.3890625 11.72275 12.3890625 11.675875 16.4978125 11.675875 16.4978125 8.232125 12.3890625 8.232125 12.3890625 1.1815"></polygon>
                <polygon id="Fill-2" fill="#231916" points="29.3231875 1.1815 29.3231875 39.60025 30.6269375 39.60025 34.8744375 39.60025 40.3975625 39.60025 40.3975625 35.158375 34.8744375 35.158375 34.8744375 27.399625 40.3975625 30.829625 40.3975625 25.7215 34.8744375 22.292125 34.8744375 16.4365 40.3975625 13.008375 40.3975625 7.900875 34.8744375 11.327125 34.8744375 1.1815"></polygon>
                <polygon id="Fill-3" fill="#231916" points="21.654625 1.1201875 21.654625 10.3939375 17.6365 7.9008125 17.6365 13.0083125 21.654625 15.5020625 21.654625 24.8045625 17.3865 24.8045625 17.3865 28.7470625 21.527125 28.7470625 15.664625 39.6001875 21.218375 39.6001875 27.21275 28.4964375 27.2065 28.4964375 27.2065 1.1201875"></polygon>
                <polygon id="Fill-4" fill="#231916" points="75.61075 13.0579375 67.762 13.0579375 67.762 11.3773125 75.61075 11.3773125 75.61075 8.4798125 67.762 8.4798125 67.762 6.6260625 61.96575 6.6260625 61.96575 8.4798125 54.397625 8.4798125 54.397625 11.3773125 61.96575 11.3773125 61.96575 13.0579375 54.397625 13.0579375 54.397625 15.9554375 75.61075 15.9554375"></polygon>
                <path d="M81.6379375,1.1201875 L78.5079375,1.1201875 L51.4704375,1.1201875 L46.9804375,1.1201875 L45.6748125,1.1201875 L45.6748125,39.6014375 L50.2254375,39.6014375 L51.4704375,39.6014375 L78.5079375,39.6014375 L79.7848125,39.6014375 L84.3023125,39.6014375 L84.3023125,1.1201875 L81.6379375,1.1201875 Z M51.4704375,36.1845625 L78.5079375,36.1845625 L78.5079375,4.7114375 L51.4704375,4.7114375 L51.4704375,36.1845625 Z" id="Fill-5" fill="#231916"></path>
                <path d="M56.083125,24.12825 L56.731875,24.12825 L56.731875,18.392 L56.083125,18.392 L56.083125,24.12825 Z M72.996875,24.127625 L73.64375,24.127625 L73.64375,18.391375 L72.996875,18.391375 L72.996875,24.127625 Z M62.84875,24.127625 L63.495625,24.127625 L63.495625,18.391375 L62.84875,18.391375 L62.84875,24.127625 Z M64.54,24.127625 L65.18875,24.127625 L65.18875,18.391375 L64.54,18.391375 L64.54,24.127625 Z M66.231875,24.127625 L66.879375,24.127625 L66.879375,18.391375 L66.231875,18.391375 L66.231875,24.127625 Z M67.9225,24.127625 L68.569375,24.127625 L68.569375,18.391375 L67.9225,18.391375 L67.9225,24.127625 Z M71.304375,24.12825 L71.954375,24.12825 L71.954375,18.392 L71.304375,18.392 L71.304375,24.12825 Z M69.6125,24.127625 L70.261875,24.127625 L70.261875,18.391375 L69.6125,18.391375 L69.6125,24.127625 Z M61.15625,24.12825 L61.805,24.12825 L61.805,18.392 L61.15625,18.392 L61.15625,24.12825 Z M57.77375,24.127625 L58.42375,24.127625 L58.42375,18.391375 L57.77375,18.391375 L57.77375,24.127625 Z M59.46625,24.12825 L60.114375,24.12825 L60.114375,18.392 L59.46625,18.392 L59.46625,24.12825 Z M77.31625,30.107 L75.960625,29.390125 L76.845,27.657625 L73.3525,25.897625 L72.5075,27.556375 L68.018125,25.171375 L74.68875,25.171375 L74.68875,17.34825 L55.04,17.34825 L55.04,25.171375 L61.6125,25.171375 L52.315,30.107 L53.97125,33.77825 L61.96625,29.532 L61.96625,34.735125 L67.761875,34.735125 L67.761875,29.582625 L75.66,33.77825 L77.31625,30.107 Z" id="Fill-6" fill="#231916"></path>
                <polygon id="Fill-7" fill="#231916" points="188.923 0.6251875 188.923 3.3176875 173.47675 3.3176875 173.47675 6.8533125 188.923 6.8533125 188.923 8.9614375 173.47675 8.9614375 173.47675 12.4958125 210.012375 12.4958125 210.012375 8.9614375 194.623 8.9614375 194.623 6.8533125 210.012375 6.8533125 210.012375 3.3176875 194.623 3.3176875 194.623 0.6251875"></polygon>
                <path d="M176.018687,14.4925 L176.018687,22.301875 L184.050563,22.301875 L184.050563,24.864375 L173.389938,24.864375 L173.389938,28.399375 L177.847438,28.399375 L176.951188,30.89125 L173.389938,30.89125 L173.389938,34.426875 L175.677438,34.426875 L173.819312,39.60125 L179.518688,39.60125 L181.379312,34.426875 L184.484938,34.426875 L182.454313,39.60125 L188.153688,39.60125 L191.574313,30.89125 L189.066187,30.89125 L185.871813,30.89125 L182.650563,30.89125 L183.544938,28.399375 L210.099937,28.399375 L210.099937,24.864375 L199.496813,24.864375 L199.496813,22.301875 L207.334313,22.301875 L207.334313,14.4925 L176.018687,14.4925 Z M205.629313,21.275625 L206.308063,21.275625 L206.308063,15.516875 L205.629313,15.516875 L205.629313,21.275625 Z M203.946187,21.275625 L204.601187,21.275625 L204.601187,15.516875 L203.946187,15.516875 L203.946187,21.275625 Z M202.265563,21.275625 L202.919938,21.275625 L202.919938,15.516875 L202.265563,15.516875 L202.265563,21.275625 Z M200.584313,21.275625 L201.238062,21.275625 L201.238062,15.516875 L200.584313,15.516875 L200.584313,21.275625 Z M198.901188,21.275625 L199.559313,21.275625 L199.559313,15.516875 L198.901188,15.516875 L198.901188,21.275625 Z M197.221187,21.275625 L197.875563,21.275625 L197.875563,15.516875 L197.221187,15.516875 L197.221187,21.275625 Z M195.539938,21.275625 L196.196813,21.275625 L196.196813,15.516875 L195.539938,15.516875 L195.539938,21.275625 Z M193.858688,21.275625 L194.513688,21.275625 L194.513688,15.516875 L193.858688,15.516875 L193.858688,21.275625 Z M192.176813,21.275625 L192.831187,21.275625 L192.831187,15.516875 L192.176813,15.516875 L192.176813,21.275625 Z M190.494313,21.275625 L191.149937,21.275625 L191.149937,15.516875 L190.494313,15.516875 L190.494313,21.275625 Z M188.813687,21.275625 L189.468063,21.275625 L189.468063,15.516875 L188.813687,15.516875 L188.813687,21.275625 Z M187.133688,21.275625 L187.786187,21.275625 L187.786187,15.516875 L187.133688,15.516875 L187.133688,21.275625 Z M185.450563,21.275625 L186.106188,21.275625 L186.106188,15.516875 L185.450563,15.516875 L185.450563,21.275625 Z M183.769313,21.275625 L184.424313,21.275625 L184.424313,15.516875 L183.769313,15.516875 L183.769313,21.275625 Z M182.086813,21.275625 L182.742437,21.275625 L182.742437,15.516875 L182.086813,15.516875 L182.086813,21.275625 Z M180.407438,21.275625 L181.061187,21.275625 L181.061187,15.516875 L180.407438,15.516875 L180.407438,21.275625 Z M178.726813,21.275625 L179.381812,21.275625 L179.381812,15.516875 L178.726813,15.516875 L178.726813,21.275625 Z M177.041813,21.275625 L177.699938,21.275625 L177.699938,15.516875 L177.041813,15.516875 L177.041813,21.275625 Z M189.751187,24.864375 L193.798063,24.864375 L193.798063,22.301875 L189.751187,22.301875 L189.751187,24.864375 Z" id="Fill-8" fill="#231916"></path>
                <path d="M204.228063,30.8910625 L198.327438,30.8910625 L192.715563,30.8910625 L192.628688,30.8910625 L192.628688,39.6010625 L209.927438,39.5954375 L209.927438,30.8910625 L204.228063,30.8910625 Z M198.327438,36.5354375 L204.228063,36.5354375 L204.228063,34.4266875 L198.327438,34.4266875 L198.327438,36.5354375 Z" id="Fill-9" fill="#231916"></path>
                <path d="M222.08575,0.6251875 L215.04575,14.1001875 L221.672,14.1001875 L224.77825,8.1539375 L238.4095,8.1539375 L236.943875,11.3689375 L235.332625,14.8989375 L223.152,14.8989375 L223.152,18.0189375 L223.152,18.5676875 L223.152,26.3789375 L214.985125,26.3789375 L214.985125,30.0451875 L235.1645,30.0451875 L235.1645,39.6014375 L242.2645,39.6014375 L242.2645,30.0451875 L255.573875,30.0451875 L255.573875,26.3789375 L242.2645,26.3789375 L242.2645,18.5676875 L252.556375,18.5676875 L252.556375,14.8989375 L242.097,14.8989375 L240.485125,11.3689375 L239.021375,8.1539375 L255.573875,8.1539375 L255.573875,4.4858125 L226.6945,4.4858125 L228.713875,0.6251875 L222.08575,0.6251875 Z M229.24325,26.3783125 L235.1645,26.3783125 L235.1645,18.5676875 L229.24325,18.5676875 L229.24325,26.3783125 Z" id="Fill-10" fill="#231916"></path>
                <polygon id="Fill-11" fill="#231916" points="285.613375 0.975625 285.613375 3.43125 271.262125 3.43125 271.262125 0.975625 265.71025 0.975625 265.71025 3.43125 260.458375 3.43125 260.458375 6.87375 265.71025 6.87375 265.71025 9.78875 271.262125 9.78875 271.262125 6.87375 285.613375 6.87375 285.613375 9.78875 291.164 9.78875 291.164 6.87375 296.377125 6.87375 296.377125 3.43125 291.164 3.43125 291.164 0.975625"></polygon>
                <g id="Group-27" transform="translate(0.625000, 0.226375)">
                    <g id="Group-14" transform="translate(259.375000, 11.250000)">
                        <mask id="mask-2" fill="white">
                            <use xlink:href="#path-1"></use>
                        </mask>
                        <g id="Clip-13"></g>
                        <path d="M0.4584375,3.5585 L15.6621875,3.5585 L15.6621875,7.29225 L12.3121875,7.29225 C11.6534375,5.8335 10.1896875,4.814125 8.4865625,4.814125 C6.7834375,4.814125 5.3184375,5.8335 4.6615625,7.29225 L0.4584375,7.29225 L0.4584375,10.732875 L4.6615625,10.732875 C5.3184375,12.192875 6.7834375,13.209125 8.4865625,13.209125 C10.1896875,13.209125 11.6534375,12.192875 12.3121875,10.732875 L15.6621875,10.732875 L15.6621875,14.43975 L0.4584375,14.43975 L0.4584375,17.88225 L15.6621875,17.88225 L15.6621875,20.600375 L0.4584375,20.600375 L0.4584375,24.045375 L15.6621875,24.045375 L15.6621875,28.125375 L21.2115625,28.125375 L21.2115625,24.045375 L36.3765625,24.045375 L36.3765625,20.600375 L21.2115625,20.600375 L21.2115625,17.88225 L36.3765625,17.88225 L36.3765625,14.43975 L21.2115625,14.43975 L21.2115625,10.732875 L24.5640625,10.732875 C25.2215625,12.192875 26.6859375,13.209125 28.3878125,13.209125 C30.0940625,13.209125 31.5546875,12.192875 32.2146875,10.732875 L36.3765625,10.732875 L36.3765625,7.29225 L32.2146875,7.29225 C31.5546875,5.8335 30.0940625,4.814125 28.3878125,4.814125 C26.6859375,4.814125 25.2215625,5.8335 24.5640625,7.29225 L21.2115625,7.29225 L21.2115625,3.5585 L36.3765625,3.5585 L36.3765625,0.11725 L0.4584375,0.11725 L0.4584375,3.5585 Z" id="Fill-12" fill="#231916" mask="url(#mask-2)"></path>
                    </g>
                    <mask id="mask-4" fill="white">
                        <use xlink:href="#path-3"></use>
                    </mask>
                    <g id="Clip-16"></g>
                    <path d="M101.660625,24.163125 L113.1375,24.163125 L113.1375,21.553125 L101.660625,21.553125 L101.660625,24.163125 Z M101.660625,35.933125 L113.1375,35.933125 L113.1375,33.32375 L101.660625,33.32375 L101.660625,35.933125 Z M101.660625,18.113125 L97.926875,18.113125 L96.108125,18.113125 L96.108125,39.375 L97.926875,39.375 L101.660625,39.375 L113.1375,39.375 L118.68875,39.375 L118.68875,35.933125 L118.68875,33.324375 L118.68875,31.1025 L118.68875,29.8825 L101.660625,29.8825 L101.660625,27.604375 L118.68875,27.604375 L118.68875,27.133125 L118.68875,24.163125 L118.68875,21.55375 L118.68875,18.113125 L113.1375,18.113125 L101.660625,18.113125 Z" id="Fill-15" fill="#231916" mask="url(#mask-4)"></path>
                    <polygon id="Fill-17" fill="#231916" mask="url(#mask-4)" points="123.352125 12.4500625 123.352125 12.4500625 110.152125 12.4500625 110.152125 10.5363125 104.6015 10.5363125 104.6015 12.4500625 92.84525 12.4500625 88.904625 12.4500625 88.904625 20.2225625 94.454 20.2225625 94.454 15.8931875 120.299 15.8931875 120.299 20.2225625 125.849625 20.2225625 125.849625 12.4500625"></polygon>
                    <polygon id="Fill-18" fill="#231916" mask="url(#mask-4)" points="96.056875 4.2628125 105.44875 4.2628125 105.44875 0.9859375 97.17625 0.9859375 93.679375 0.9859375 91.625 0.9859375 88.625625 9.7584375 94.179375 9.7584375"></polygon>
                    <polygon id="Fill-19" fill="#231916" mask="url(#mask-4)" points="116.041937 4.2628125 125.433812 4.2628125 125.433812 0.9859375 117.161937 0.9859375 113.662562 0.9859375 111.609437 0.9859375 108.613187 9.7584375 114.164437 9.7584375"></polygon>
                    <path d="M97.5595625,7.9261875 C97.5595625,9.3393125 98.7051875,10.4861875 100.117687,10.4861875 C101.530812,10.4861875 102.677062,9.3393125 102.677062,7.9261875 C102.677062,6.5130625 101.530812,5.3674375 100.117687,5.3674375 C98.7051875,5.3674375 97.5595625,6.5130625 97.5595625,7.9261875" id="Fill-20" fill="#2EB5A9" mask="url(#mask-4)"></path>
                    <path d="M117.768,7.9261875 C117.768,9.3393125 118.913625,10.4861875 120.326125,10.4861875 C121.73925,10.4861875 122.886125,9.3393125 122.886125,7.9261875 C122.886125,6.5130625 121.73925,5.3674375 120.326125,5.3674375 C118.913625,5.3674375 117.768,6.5130625 117.768,7.9261875" id="Fill-21" fill="#E3007E" mask="url(#mask-4)"></path>
                    <path d="M146.897063,12.1589375 C146.037688,11.5214375 145.547063,10.5508125 145.547063,9.4933125 C145.547063,7.6595625 147.060188,6.1651875 148.920187,6.1651875 C150.778938,6.1651875 152.292063,7.6595625 152.292063,9.4933125 C152.292063,10.5501875 151.800187,11.5214375 150.942063,12.1589375 L149.109563,13.5183125 L150.942063,14.8745625 C151.800187,15.5139375 152.292063,16.4839375 152.292063,17.5389375 C152.292063,19.3751875 150.778938,20.8670625 148.920187,20.8670625 C147.060188,20.8670625 145.547063,19.3751875 145.547063,17.5389375 C145.547063,16.4839375 146.037688,15.5139375 146.897063,14.8764375 L148.731437,13.5183125 L146.897063,12.1589375 Z M167.880188,25.0951875 L151.787688,25.0951875 L151.787688,23.6339375 C154.115813,22.5620625 155.735813,20.2383125 155.735813,17.5389375 C155.735813,16.0839375 155.250188,14.6739375 154.383938,13.5233125 C155.256438,12.3758125 155.735813,10.9789375 155.735813,9.4933125 C155.735813,6.7976875 154.115813,4.4726875 151.787688,3.3995625 L151.787688,0.9851875 L146.047687,0.9851875 L146.047687,3.3995625 C143.721438,4.4726875 142.100812,6.7976875 142.100812,9.4933125 C142.100812,10.9739375 142.580813,12.3726875 143.448937,13.5183125 C142.580813,14.6614375 142.100812,16.0595625 142.100812,17.5389375 C142.100812,20.2383125 143.721438,22.5620625 146.047687,23.6339375 L146.047687,25.0951875 L130.735187,25.0951875 L130.735187,28.6545625 L139.861437,28.6545625 L131.872688,33.8476875 L134.517063,37.8258125 L146.047687,30.3320625 L146.047687,39.3751875 L151.787688,39.3751875 L151.787688,30.3301875 L163.321438,37.8258125 L165.965188,33.8476875 L157.977063,28.6545625 L167.880188,28.6545625 L167.880188,25.0951875 Z" id="Fill-22" fill="#231916" mask="url(#mask-4)"></path>
                    <polygon id="Fill-23" fill="#2EB5A9" mask="url(#mask-4)" points="140.317125 11.0548125 137.95275 7.2035625 135.588375 3.3529375 133.220875 7.2035625 130.8565 11.0548125 135.588375 11.0548125"></polygon>
                    <polygon id="Fill-24" fill="#E3007E" mask="url(#mask-4)" points="140.317125 20.99625 137.95275 17.1475 135.588375 13.294375 133.220875 17.1475 130.8565 20.99625 135.588375 20.99625"></polygon>
                    <polygon id="Fill-25" fill="#E3007E" mask="url(#mask-4)" points="167.535187 11.0548125 165.168937 7.2035625 162.801437 3.3529375 160.438312 7.2035625 158.073312 11.0548125 162.801437 11.0548125"></polygon>
                    <polygon id="Fill-26" fill="#2EB5A9" mask="url(#mask-4)" points="167.535187 20.99625 165.168937 17.1475 162.801437 13.294375 160.438312 17.1475 158.073312 20.99625 162.801437 20.99625"></polygon>
                </g>
            </g>
        </g>
    </g>
</svg>