<?xml version="1.0" encoding="UTF-8"?>
<svg width="219px" height="30px" viewBox="0 0 219 30" version="1.1" xmlns="http://www.w3.org/2000/svg" xmlns:xlink="http://www.w3.org/1999/xlink">
    <title>Group 30</title>
    <defs>
        <polygon id="path-1" points="0 0.711719394 32.2192949 0.711719394 32.2192949 25.7142857 0 25.7142857"></polygon>
        <polygon id="path-3" points="0.000522134349 0.843339376 26.1571882 0.843339376 26.1571882 26.3415587 0.000522134349 26.3415587"></polygon>
        <polygon id="path-5" points="0.202427378 0.551142857 5.98450793 0.551142857 5.98450793 5.94237043 0.202427378 5.94237043"></polygon>
    </defs>
    <g id="Symbols" stroke="none" stroke-width="1" fill="none" fill-rule="evenodd">
        <g id="Footer-v02" transform="translate(-645.000000, -67.000000)">
            <g id="Group" transform="translate(534.000000, 67.000000)">
                <g id="Group-30" transform="translate(111.000000, 0.000000)">
                    <path d="M46.4401094,19.9241143 L46.4401094,19.9241143 C46.4452624,19.8486857 46.4478388,19.7741143 46.4529918,19.7038286 C45.9608859,19.6635429 45.4601918,19.5444 44.9792506,19.5992571 C44.4407682,19.6635429 44.0139329,20.4426857 44.1092624,20.9826857 C44.1891329,21.4249714 44.4682506,21.5449714 44.8014741,21.2955429 C45.3734506,20.8686857 45.8981918,20.3835429 46.4401094,19.9241143 M45.8638388,16.0729714 L45.8638388,16.0729714 C44.4656741,16.2632571 43.2392741,16.4166857 42.0214624,16.6172571 C41.9269918,16.6369714 41.7766976,17.0209714 41.8342388,17.1666857 C42.1872153,18.0786857 42.8742741,18.2826857 43.7588624,17.7966857 C43.9520976,17.6912571 44.1539212,17.5558286 44.3712035,17.5309714 C45.2034035,17.4264 45.48338,16.8118286 45.8638388,16.0729714 M41.4331682,20.0638286 L41.4331682,20.0638286 C41.3730506,20.0089714 41.3172271,19.9592571 41.2605447,19.9044 C41.1875447,19.9044 41.1102506,19.8941143 41.0398271,19.9086857 C40.0573329,20.1195429 39.7679094,19.7989714 40.0272741,18.8098286 C40.0925447,18.5526857 40.0702153,18.2724 40.0624859,18.0084 C40.0453094,17.4615429 39.9542741,16.9164 39.9946388,16.3721143 C40.0478859,15.6186857 40.5279682,15.4335429 41.2021447,15.8124 C41.4056859,15.9324 41.7715447,16.0326857 41.9166859,15.9324 C43.0065329,15.1609714 44.3256859,15.1806857 45.5331918,14.8318286 C45.8784388,14.7306857 46.1850388,14.4615429 46.4753212,14.2284 C46.5380153,14.1795429 46.4675918,13.8392571 46.4452624,13.8392571 C46.0922859,13.8195429 45.6886388,13.7252571 45.3846153,13.8495429 C43.3921447,14.6715429 41.3052035,15.0109714 39.1778976,15.2004 C38.1344271,15.3032571 37.4404976,14.7461143 37.5985212,13.9189714 C37.71618,13.2992571 38.1498859,13.1509714 38.7064035,13.1552571 C39.7558859,13.1604 40.8345682,13.2992571 41.7818506,12.6761143 C41.9742271,12.5458286 42.1279565,12.3615429 42.2945682,12.2055429 C42.1047682,12.0366857 41.9321447,11.7761143 41.7114271,11.7195429 C41.2279094,11.6089714 40.7203447,11.5944 40.2256624,11.5592571 C39.6588388,11.5138286 39.4630271,11.1589714 39.4011918,10.6566857 C39.3427918,10.2084 39.3530976,9.79354286 39.9130506,9.6684 C40.4085918,9.54925714 40.9195918,9.49354286 41.4082624,9.34868571 C41.9544741,9.18925714 42.7007918,9.30325714 42.8914506,8.55411429 C43.0219918,8.04754286 43.0314388,7.5084 43.1044388,6.87068571 C42.8837212,6.87068571 42.5462035,6.83554286 42.2172741,6.87582857 C41.2047212,7.00097143 40.1998976,7.18097143 39.19078,7.2804 C38.1498859,7.38582857 37.7084506,7.79297143 37.6543447,8.84897143 C37.6088271,9.66325714 37.6088271,10.4878286 37.5478506,11.2986857 C37.4061447,13.2606857 36.4004624,15.0958286 36.7688976,17.1564 C36.9346506,18.0838286 36.5936976,19.0944 36.67958,20.0492571 C36.8221447,21.6504 37.1046976,23.2404 37.3735094,24.8269714 C37.4885918,25.5066857 37.9085565,25.9232571 38.6737682,25.9429714 C38.98638,25.9481143 39.3050035,26.0578286 39.6055918,26.1624 C39.8881447,26.2635429 41.8694506,25.9986857 42.0042859,25.7535429 C42.1099212,25.5606857 42.0695565,25.2915429 42.0566741,25.0566857 C42.0197447,24.3444 41.96478,23.6304 41.9098153,22.9215429 C41.8892035,22.6412571 41.8539918,22.3669714 41.8239329,22.0849714 C41.5774506,22.1715429 41.3326859,22.2469714 41.0904976,22.3412571 C40.4180388,22.5958286 39.8658153,23.2806857 39.0095682,22.8358286 C38.4152624,22.5315429 38.3611565,22.3318286 38.9013565,21.9641143 C39.5635094,21.5149714 40.2660271,21.1224 40.9221682,20.6732571 C41.1317212,20.5284 41.2648388,20.2686857 41.4331682,20.0638286 M44.4107094,6.58182857 L44.4107094,6.58182857 C44.5833329,6.67611429 44.8856388,6.7464 44.9990035,6.9264 C45.6937918,8.05182857 46.7956624,7.90697143 47.8614624,7.89754286 C47.9868506,7.89754286 48.1139565,7.88725714 48.2350506,7.90268571 C48.9367094,8.00297143 49.6134624,8.73925714 49.5988624,9.37868571 C49.5834035,10.0284 49.1995094,10.3232571 48.2968859,10.4329714 C47.5608741,10.5178286 46.8154153,10.6078286 46.0948624,10.7775429 C45.8088741,10.8521143 45.5778506,11.1589714 45.32278,11.3595429 C45.5984624,11.4589714 45.8878859,11.6689714 46.1575565,11.6492571 C47.4475094,11.5695429 48.73918,11.4692571 50.0110976,11.2798286 C50.6526388,11.1846857 51.0339565,11.4486857 51.1962741,11.9312571 C51.3534388,12.3906857 51.3250976,12.9152571 51.3156506,13.4098286 C51.3130741,13.4895429 50.9961682,13.6301143 50.8192506,13.6344 C49.9037447,13.6592571 48.9839447,13.6395429 48.0692976,13.6549714 C47.9198624,13.6592571 47.7747212,13.7646857 47.4552388,13.8949714 C47.8494388,14.2146857 48.1070859,14.4718286 48.4068153,14.6561143 C49.1162035,15.1009714 49.2123918,15.4129714 48.7314506,16.0969714 C48.3673094,16.6215429 47.9447682,17.1118286 47.5771918,17.6304 C47.3702153,17.9286857 47.2250741,18.2672571 47.1151447,18.4729714 C47.5308153,18.4326857 47.9842741,18.2535429 48.2453565,18.4035429 C48.7366035,18.6855429 48.8611329,19.2341143 48.6464271,19.7792571 C48.5502388,20.0286857 48.3999447,20.2686857 48.2195918,20.4684 C48.0066035,20.7135429 47.7592624,20.9226857 47.4998976,21.1224 C47.0799329,21.4498286 47.0069329,21.7344 47.5325329,22.0189714 C47.7790153,22.1518286 48.0340859,22.2624 48.2522271,22.4321143 C48.7314506,22.8058286 49.2639212,23.1564 49.6289212,23.6201143 C49.8058388,23.8446857 49.7860859,24.4249714 49.6083094,24.6641143 C49.4623094,24.8569714 48.8336506,24.9418286 48.6266741,24.7969714 C47.9988741,24.3546857 47.3478859,24.3049714 46.6359212,24.3144 C46.2795094,24.3246857 45.9462859,24.1798286 46.1498271,23.7204 C46.4555682,23.0158286 45.7934153,22.8058286 45.4576153,22.4861143 C45.32278,22.3566857 44.8590153,22.4861143 44.5833329,22.6018286 C44.1041094,22.7964 43.8662153,23.1761143 43.8936976,23.7255429 C43.90658,24.0349714 43.8790976,24.3846857 43.7537094,24.6641143 C43.4883329,25.2709714 43.7210741,25.4261143 44.30078,25.4209714 C45.5933094,25.3961143 46.8892741,25.3712571 48.1818035,25.3909714 C48.7563565,25.4064 49.3850153,25.2615429 49.86338,25.8084 C49.9561329,25.9129714 50.3237094,25.8332571 50.5401329,25.7629714 C50.7763094,25.6935429 50.9643918,25.4964 51.1911212,25.4064 C52.0104388,25.0858286 52.4553094,24.4841143 52.4003447,23.6252571 C52.3531094,22.8709714 52.1349682,22.1235429 52.0842976,21.3744 C52.0310506,20.5129714 52.0808624,19.6541143 52.0842976,18.7952571 C52.1049094,15.8878286 52.1298153,12.9795429 52.1298153,10.0729714 C52.1323918,9.2544 52.1074859,8.42982857 52.0207447,7.61811429 C51.9236976,6.6864 51.2830153,5.89697143 50.6105565,5.81725714 C48.4746624,5.56268571 46.3731212,5.65697143 44.4107094,6.58182857 M56.6506624,4.58554286 C56.4359565,5.2824 56.2014976,5.96725714 56.0091212,6.66582857 C55.4397212,8.73925714 54.1514859,10.6378286 54.4726859,12.9306857 C54.5053212,13.1904 54.4469212,13.4895429 54.3395682,13.7295429 C54.1240035,14.2189714 54.11198,14.6561143 54.3696271,15.1515429 C54.5173447,15.4386857 54.5405329,15.8526857 54.4675329,16.1724 C54.1746741,17.4161143 54.6075212,18.6221143 54.6246976,19.8435429 C54.6547565,21.9049714 54.7011329,23.9706857 54.5250741,26.0132571 C54.4494976,26.8421143 53.9290506,27.7361143 53.0066741,28.1166857 C52.7000741,28.2435429 52.2569212,28.1869714 51.9262741,28.0712571 C51.6128035,27.9666857 51.3156506,27.7069714 51.0992271,27.4464 C50.5555918,26.7872571 49.8839918,26.8678286 49.1694506,27.0075429 C48.7116976,27.0975429 48.2453565,27.2072571 47.7790153,27.2175429 C44.5627212,27.3066857 41.3498624,27.3924 38.1344271,27.4266857 C37.4456506,27.4369714 36.7439918,27.2664 36.0646624,27.1172571 C35.8499565,27.0726857 35.6395447,26.8575429 35.5029918,26.6672571 C35.3630035,26.4684 35.2676741,26.2129714 35.2427682,25.9738286 C35.0649918,24.1798286 34.8640271,22.3969714 34.7695565,20.5926857 C34.7317682,19.9241143 35.0143212,19.2392571 35.0495329,18.5578286 C35.0727212,18.1275429 34.8872153,17.6912571 34.8322506,17.2566857 C34.7918859,16.9421143 34.76698,16.6215429 34.7996153,16.3069714 C34.86918,15.5732571 35.04438,14.8412571 35.0546859,14.0989714 C35.0873212,12.0212571 35.0701447,9.94268571 35.0426624,7.86325714 C35.0349329,7.47754286 34.9224271,7.08154286 34.7996153,6.71125714 C34.5058976,5.84211429 34.8949447,5.11782857 35.7142624,4.7304 C36.3300388,4.44154286 36.8221447,4.32668571 37.4636859,4.68068571 C37.7565447,4.84782857 38.2529447,4.72611429 38.63598,4.6404 C39.8108506,4.37554286 40.9625329,4.17582857 42.2043918,4.31125714 C42.9498506,4.39097143 43.7485565,3.97182857 44.5283682,3.7944 C45.5434976,3.56382857 46.5483212,3.25011429 47.5771918,3.15497143 C48.9693447,3.01954286 50.3391682,2.75554286 51.7931565,3.10954286 C52.8005565,3.34954286 53.9539565,3.05897143 55.03178,2.93468571 C55.5556624,2.8704 56.3844271,3.32468571 56.4454035,3.85868571 C56.4660153,4.08582857 56.44798,4.31125714 56.44798,4.53582857 C56.5149682,4.55554286 56.5810976,4.56582857 56.6506624,4.58554286" id="Fill-1" fill="#FEFEFE"></path>
                    <g id="Group-5" transform="translate(0.000000, 3.734829)">
                        <mask id="mask-2" fill="white">
                            <use xlink:href="#path-1"></use>
                        </mask>
                        <g id="Clip-4"></g>
                        <path d="M26.6485212,9.18565714 L26.6485212,9.18565714 C26.5514741,9.10594286 26.4535682,9.02108571 26.3530859,8.93622857 C25.74418,9.57565714 25.1223918,10.2039429 24.5315212,10.8613714 C24.4413447,10.9608 24.4817094,11.1759429 24.4585212,11.3362286 C24.6388741,11.3413714 24.8570153,11.4065143 25.0021565,11.3362286 C25.9142271,10.8819429 26.2105212,9.98022857 26.6485212,9.18565714 M18.1246976,12.5722286 L18.1246976,12.5722286 C17.5844976,12.2182286 17.1353329,12.3819429 16.6999094,12.6570857 C16.3426388,12.8868 16.0472035,12.9828 15.7698035,12.5070857 C15.5988976,12.2182286 15.3034624,11.9885143 15.0449565,11.7579429 C14.60438,11.3610857 13.8039565,11.3962286 13.6811447,10.5990857 C13.6493682,10.4045143 13.4037447,10.0642286 13.3170035,10.0796571 C13.0250035,10.1345143 12.6642976,10.2545143 12.5114271,10.4799429 C12.02018,11.1862286 12.3173329,12.1873714 13.0730976,12.6279429 C13.4140506,12.8268 13.8314388,12.9768 14.0727682,13.2673714 C14.7366388,14.0610857 15.5233212,14.2085143 16.4053329,13.7859429 C17.02798,13.4962286 17.7897565,13.3368 18.1246976,12.5722286 M17.5295329,9.30051429 C17.4092976,8.5008 17.2401094,7.75422857 17.1954506,6.99222857 C17.1404859,6.13337143 17.87478,5.3448 18.6417094,5.32937143 C19.6259212,5.30965714 20.2408388,5.99365714 20.3155565,7.03251429 C20.4160388,8.36622857 20.6118506,9.68537143 20.7715918,11.0062286 C20.7793212,11.0713714 20.85318,11.1262286 20.8926859,11.1759429 C22.1723329,10.8262286 22.1998153,10.8262286 22.22558,9.63994286 C22.2427565,8.87622857 22.1680388,8.10651429 22.1130741,7.33508571 C22.0246153,6.0888 22.40078,4.94022857 22.8817212,3.82251429 C23.0423212,3.44108571 24.3391447,3.42051429 24.8673212,3.73337143 C25.5612506,4.1328 25.6411212,4.53222857 25.3233565,5.26422857 C25.1644741,5.61908571 25.1962506,6.05365714 25.1292624,6.45308571 C25.0124624,7.2048 24.8741918,7.95394286 24.7737094,8.70565714 C24.7462271,8.89594286 24.8218035,9.1008 24.8518624,9.30051429 C25.0554035,9.25594286 25.3036035,9.26622857 25.4581918,9.15565714 C25.9142271,8.8308 26.3633918,8.48708571 26.7558741,8.09194286 C27.3381565,7.5048 27.9479212,7.65994286 28.5430859,7.9848 C29.5023918,8.51108571 29.7943918,10.1602286 29.0643918,10.9719429 C28.8969212,11.1562286 28.6032035,11.2513714 28.3498506,11.3310857 C27.16038,11.6936571 25.9537329,12.0185143 24.7762859,12.4076571 C24.5744624,12.4779429 24.3666271,12.8165143 24.3511682,13.0470857 C24.3434388,13.1765143 24.7067212,13.3865143 24.9343094,13.4559429 C25.8815918,13.7559429 26.8718153,13.9513714 27.7924741,14.3182286 C28.7294506,14.6876571 29.1631565,15.6648 28.9201094,16.5090857 C28.6719094,17.3730857 27.9453447,17.6748 27.1698271,17.1879429 C26.3041329,16.6488 25.4607682,16.0642286 24.5890624,15.5293714 C24.3314153,15.3802286 23.9947565,15.3450857 23.6967447,15.2550857 C23.6220271,15.5293714 23.5189682,15.7993714 23.4794624,16.0788 C23.4433918,16.3239429 23.4536976,16.5785143 23.4940624,16.8236571 C23.5962624,17.4682286 23.4768859,18.2696571 24.1879918,18.6219429 C25.1910976,19.1165143 26.2714976,19.3608 27.3853918,18.9365143 C28.0398153,18.6922286 28.7320271,18.5122286 29.3297682,18.1693714 C29.8347565,17.8805143 30.2349682,17.4082286 30.6738271,17.0079429 C31.10238,16.6239429 31.5189094,16.2288 31.9440271,15.8448 C32.0290506,16.3985143 32.1406976,16.9539429 32.1956624,17.5128 C32.3708624,19.2759429 31.5584153,20.5702286 30.2074859,21.6219429 C29.7643329,21.9630857 29.3194624,22.0633714 28.7423329,22.0033714 C27.6430388,21.8833714 26.5360153,21.9090857 25.4367212,21.8413714 C24.1648035,21.7668 22.8224624,21.6913714 22.0976153,20.4802286 C21.6536035,19.7362286 21.5660035,18.7916571 21.2379329,17.9696571 C20.6316035,16.4688 21.4801212,15.2448 21.88978,13.9213714 C21.9825329,13.6359429 21.9069565,13.2965143 21.9069565,12.9828 C21.5634271,13.1868 21.0481329,13.3110857 20.9004153,13.6110857 C20.3155565,14.8085143 19.8741212,16.0745143 19.3193212,17.2779429 C18.8667212,18.2645143 18.1049447,18.9716571 17.1026976,19.4113714 C16.29798,19.7610857 15.5061447,20.1450857 14.6911212,20.4648 C14.0504388,20.7202286 13.4063212,20.7348 12.8824388,20.1750857 C12.2743918,19.5210857 12.4744976,18.8465143 13.3358976,18.6219429 C14.3312741,18.3545143 15.3601447,18.1548 16.0824153,17.3276571 C16.2301329,17.1588 16.2954035,16.9179429 16.3958859,16.7130857 C16.1949212,16.6882286 15.9802153,16.6136571 15.7947094,16.6539429 C15.2253094,16.7782286 14.9728153,16.4233714 14.7143094,16.0393714 C14.4635329,15.6596571 12.6788976,15.2550857 12.3173329,15.5096571 C12.2065447,15.5902286 12.1498624,15.7890857 12.1301094,15.9390857 C12.0399329,16.6436571 11.8801918,17.3576571 11.9128271,18.0605143 C11.9574859,19.0119429 12.1575918,19.9548 12.2864153,20.9045143 C12.4392859,22.0033714 12.5998859,23.1022286 12.7244153,24.2019429 C12.7974153,24.8388 12.6617212,25.4199429 11.9300035,25.6153714 C10.9621094,25.8750857 10.1427918,25.6256571 9.87569765,24.8533714 C9.48922706,23.7322286 9.20839176,22.5930857 9.44886235,21.3622286 C9.55363882,20.8299429 9.34408588,20.2445143 9.32347412,19.6805143 C9.30114471,19.0916571 9.34838,18.4916571 9.34408588,17.9002286 C9.33893294,17.7150857 9.30887412,17.4528 9.18863882,17.3679429 C9.07785059,17.2933714 8.79529765,17.3473714 8.65187412,17.4433714 C7.09139176,18.4616571 5.41410941,19.2108 3.64579176,19.7953714 C2.08359176,20.3148 2.02089765,20.3405143 0.915591765,19.0170857 C0.731803529,18.8019429 0.416615294,18.6870857 0.211356471,18.4822286 C0.0859682353,18.3545143 0.00953294118,18.1496571 -0.000119592968,17.9696571 C-0.00764352941,17.9002286 0.204485882,17.7905143 0.334168235,17.7356571 C1.75809765,17.1528 3.19319176,16.6033714 4.61025059,16.0093714 C5.79456824,15.5148 6.85178,14.8085143 7.75440353,13.8913714 C8.16835647,13.4713714 8.54366235,13.0119429 8.90608588,12.5422286 C8.98338,12.4376571 8.97307412,12.1230857 8.89835647,12.0776571 C8.72830941,11.9782286 8.47667412,11.9182286 8.28601529,11.9576571 C7.55687412,12.1230857 6.84405059,12.4179429 6.11147412,12.5028 C5.57470941,12.5619429 4.95206235,12.4779429 4.47970941,12.2328 C4.10783882,12.0433714 3.62432118,11.4656571 3.69045059,11.1613714 C3.83988588,10.4448 4.23322706,9.74965714 4.65061529,9.12565714 C4.76741529,8.94651429 5.38662706,8.87622857 5.61507412,9.01594286 C6.50910941,9.55508571 7.18414471,8.85051429 7.95107412,8.71594286 C8.20528588,8.67565714 8.42085059,8.44165714 8.68107412,8.3508 C9.63007412,8.02165714 9.77607412,6.67765714 9.67730941,5.92851429 C9.63952118,5.61394286 9.53302706,5.29422857 9.55621529,4.9848 C9.61289765,4.21251429 9.31574471,3.60051429 8.72830941,3.15651429 C8.14087412,2.7168 8.08075647,2.11251429 8.28601529,1.55794286 C8.39594471,1.26822857 8.89062706,1.08308571 9.24532118,0.925371429 C11.0883565,0.113657143 12.5921565,1.76794286 12.8266153,3.31594286 C12.92538,3.97851429 12.9142153,4.65994286 12.9021918,5.32422857 C12.8875918,5.92337143 13.0413212,6.24822857 13.7240859,6.07337143 C14.5708859,5.86337143 15.2880035,6.28337143 15.7053918,6.85251429 C16.1150506,7.42937143 16.1554153,8.22137143 15.5834388,8.86594286 C15.2931565,9.19594286 15.4030859,9.44022857 15.84538,9.42994286 C16.40018,9.41965714 16.9627094,9.34594286 17.5295329,9.30051429" id="Fill-3" fill="#FEFEFE" mask="url(#mask-2)"></path>
                    </g>
                    <path d="M95.3376565,14.541 C95.7241271,16.3024286 94.9125388,17.241 93.0257035,17.4115714 C92.75088,17.4364286 92.47348,17.4415714 92.2063859,17.5007143 C91.1045153,17.7612857 91.1783741,17.7715714 91.0976447,18.9192857 C91.0151976,20.109 91.7563624,20.0438571 92.6289271,19.8184286 C93.4164682,19.6144286 94.2357859,19.4498571 95.0447976,19.4292857 C95.8873035,19.4044286 96.1277741,19.749 95.9955153,20.5675714 C95.8847271,21.2704286 95.4003506,21.7547143 94.7493624,21.9347143 C93.0909741,22.3864286 91.4093976,22.7661429 89.7321153,23.1758571 C88.5941741,23.451 87.4485035,23.7201429 86.3079859,23.9995714 C86.0907035,24.0552857 85.8725624,24.1101429 85.6664447,24.2001429 C84.3490094,24.7667143 83.6525035,24.465 83.1930329,23.1055714 C82.7747859,21.8695714 83.5073624,21.0724286 84.8299506,21.3501429 C85.3718682,21.4598571 85.5848565,21.3004286 85.5513624,20.7484286 C85.5187271,20.229 85.5848565,19.7035714 85.5470682,19.1901429 C85.4611859,17.8881429 85.3512565,16.5921429 84.6822329,15.4178571 C84.5723035,15.2232857 84.5319388,14.991 84.4640918,14.781 C84.2983388,14.2341429 84.5774565,14.0198571 85.0764329,14.0292857 C86.0907035,14.0498571 87.6795271,15.0861429 87.5816212,16.2724286 C87.5060447,17.1707143 87.6056682,18.0835714 87.5790447,18.9947143 C87.5713153,19.239 87.30508,19.485 87.30508,19.7344286 C87.30508,20.1484286 87.3042212,20.6635714 87.53868,20.943 C87.6726565,21.0972857 88.3081859,20.9327143 88.6499976,20.7732857 C88.7951388,20.7081429 88.7951388,20.289 88.8148918,20.0232857 C88.8277741,19.9187143 88.6603035,19.7841429 88.6826329,19.6941429 C88.8595506,18.8841429 88.7041035,18.0587143 88.7822565,17.2615714 C88.9050682,16.023 89.3207388,14.811 89.5320094,13.575 C89.5672212,13.3701429 89.2125271,12.9004286 89.0107035,12.885 C88.4533271,12.831 87.8521506,12.8652857 87.3205388,13.0298571 C86.8155506,13.185 86.5287035,13.0804286 86.2238212,12.7007143 C85.5745506,11.8812857 85.6819035,11.0241429 86.1138918,10.1884286 C86.2212447,9.97328571 86.5742212,9.79842857 86.8361624,9.76842857 C87.3531741,9.699 87.8950918,9.68871429 88.4181153,9.74271429 C89.8300212,9.89871429 91.0297976,9.33385714 92.1857741,8.66871429 C92.9604329,8.217 93.6887153,7.84757143 94.6351388,8.17671429 C95.2002447,8.37985714 95.9723271,9.11357143 96.0075388,9.68357143 C96.0418918,10.1884286 95.4235388,10.7172857 94.7347624,10.9598571 C93.8218329,11.2744286 92.9381035,11.679 92.0655388,12.0912857 C91.9066565,12.171 91.7615153,12.4907143 91.7864212,12.6758571 C91.8594212,13.2201429 92.09388,13.7447143 92.1333859,14.289 C92.1806212,14.9361429 92.4580212,15.1307143 93.0583388,14.991 C93.2532918,14.9515714 93.4456682,14.8958571 93.6457741,14.871 C94.5535506,14.751 94.5535506,14.751 94.1799624,13.9495714 C93.8029388,13.1447143 94.5234918,11.5444286 95.4578918,11.3541429 C96.2222447,11.1947143 96.7143506,10.7978571 97.1094094,10.1987143 C97.4512212,9.67842857 97.8471388,9.19414286 98.1331271,8.64985714 C98.6037624,7.75757143 98.4586212,6.84557143 97.9544918,6.02185714 C97.5456918,5.35757143 97.9819741,4.86814286 98.3237859,4.49528571 C98.66388,4.131 99.1628565,3.63385714 99.8370329,4.05642857 C99.9795976,4.14557143 100.157374,4.18585714 100.329998,4.22614286 C101.969492,4.58614286 102.617045,6.117 101.639704,7.46785714 C100.944915,8.42957143 100.135045,9.309 99.3758447,10.2278571 C99.3277506,10.2827143 99.2427271,10.3178571 99.2109506,10.3778571 C98.9953859,10.8278571 98.4912565,11.2598571 98.8966212,11.7964286 C99.2805153,12.291 99.7631741,12.1658571 100.315398,11.931 C101.390645,11.4792857 102.528586,11.1595714 103.623586,10.7378571 C104.288315,10.4832857 104.926421,10.1584286 105.560233,9.83357143 C106.312562,9.44871429 107.062315,9.58928571 107.940033,10.3375714 C108.457045,10.7824286 108.729292,11.679 108.41668,12.3012857 C108.122104,12.8952857 107.545833,12.9458571 106.892268,12.9955714 C105.43828,13.1052857 103.992021,13.3701429 102.546621,13.5904286 C102.400621,13.6092857 102.272656,13.7695714 102.064821,13.9092857 C102.499386,14.1544286 102.869539,14.3567143 103.229386,14.5658571 C103.911292,14.9764286 104.198139,15.6124286 104.026374,16.3521429 C103.83228,17.211 103.560892,18.0732857 103.231962,18.8995714 C102.869539,19.8038571 103.00008,20.3035714 103.851174,20.8032857 C105.170327,21.5695714 106.449974,22.4121429 107.805198,23.1055714 C108.931974,23.6798571 110.151504,24.0852857 111.317786,24.5901429 C111.618374,24.7195714 111.873445,24.9518571 112.149986,25.1361429 C111.923256,25.3855714 111.743762,25.7335714 111.462927,25.8578571 C109.881833,26.5581429 108.276692,27.2472857 106.483468,26.913 C106.125339,26.847 105.756045,26.5975714 105.490668,26.3378571 C104.310645,25.1618571 103.174421,23.9404286 101.989245,22.7755714 C101.844104,22.6358571 101.455056,22.6564286 101.212868,22.7215714 C100.986998,22.7807143 100.724198,22.9555714 100.615986,23.1561429 C99.9366565,24.3895714 98.6132094,24.5241429 97.4915859,25.0118571 C97.37908,25.0572857 97.2682918,25.1215714 97.1703859,25.1918571 C95.4819388,26.4432857 93.6964447,26.4578571 91.99168,25.2612857 C91.7366094,25.0821429 91.4016682,25.017 91.1199741,24.8618571 C90.96968,24.777 90.8571741,24.615 90.7266329,24.4941429 C90.8520212,24.3844286 90.9593741,24.2095714 91.1045153,24.1744286 C91.3441271,24.1152857 91.6009153,24.135 91.8516918,24.135 C94.6093741,24.1307143 97.0200918,23.2607143 99.0074094,21.3355714 C99.5338682,20.823 99.4806212,20.3481429 98.7987153,20.0335714 C97.9441859,19.6392857 97.0200918,19.3838571 96.1492447,19.0204286 C95.2053976,18.6175714 94.9451741,17.5161429 95.6519859,16.9315714 C95.8426447,16.7721429 96.2351271,16.6718571 96.4463976,16.7515714 C97.5783271,17.2212857 98.6965153,17.7261429 99.7915153,18.273 C100.603104,18.675 101.084904,18.4975714 101.139868,17.6155714 C101.202562,16.6272857 101.194833,15.6287143 101.159621,14.6361429 C101.157045,14.5067143 100.799774,14.2692857 100.643468,14.289 C99.3681153,14.5015714 98.1082212,14.8212857 96.8268565,14.9764286 C96.3888565,15.0304286 95.9070565,14.721 95.3376565,14.541" id="Fill-6" fill="#FEFEFE"></path>
                    <g id="Group-10" transform="translate(192.376471, 2.020543)">
                        <mask id="mask-4" fill="white">
                            <use xlink:href="#path-3"></use>
                        </mask>
                        <g id="Clip-9"></g>
                        <path d="M8.22409412,5.26988571 L8.22409412,5.26988571 C8.20863529,5.35045714 8.19489412,5.43188571 8.17428235,5.51245714 C8.58995294,6.1116 9.00132941,6.70902857 9.417,7.30817143 C9.44448235,7.34845714 9.49429412,7.38874286 9.53637647,7.38874286 C10.1461412,7.41874286 10.7730824,7.54302857 11.3605176,7.45302857 C12.5680235,7.26788571 13.7428941,6.84874286 14.9495412,6.74931429 C16.4791059,6.61902857 17.009,5.4876 17.6479647,4.44102857 C17.8377647,4.1316 17.7450118,3.73645714 17.2915529,3.74674286 C16.5443765,3.75617143 15.7671412,3.74674286 15.0663412,3.94645714 C13.9472941,4.27131429 12.8952353,4.80017143 11.7873529,5.16017143 C11.2634706,5.33502857 10.6743176,5.37017143 10.1186588,5.38045714 C9.48742353,5.39674286 8.85447059,5.31017143 8.22409412,5.26988571 M26.1503176,15.2761714 C26.2353412,16.4873143 25.5620235,17.1636 24.9101765,17.7833143 C23.4656353,19.1624571 22.5389647,20.8004571 22.0631765,22.7161714 C21.7170706,24.1278857 20.7500353,25.1718857 19.7477882,26.1361714 C19.2058706,26.6573143 18.6699647,26.0658857 18.2585882,25.6964571 C17.4057765,24.9361714 16.5941882,24.1321714 15.7671412,23.3410286 C15.6563529,23.2407429 15.5112118,23.1507429 15.4596824,23.0213143 C15.3411647,22.7161714 15.2690235,22.3947429 15.1797059,22.0793143 C15.5043412,22.0493143 15.8315529,21.9841714 16.1630588,21.9893143 C16.7857059,22.0038857 17.4186588,22.1487429 18.0232706,22.0647429 C18.3882706,22.0090286 18.8400118,21.6996 19.0203647,21.3798857 C19.8499882,19.9090286 20.6444,18.4124571 21.3537882,16.8841714 C21.6543765,16.2421714 21.7711765,15.5007429 21.8699412,14.7961714 C21.9120235,14.5270286 21.7591529,14.1164571 21.5521765,13.9364571 C20.2836941,12.8504571 18.8932588,12.2633143 17.1309529,12.7201714 C16.0084706,13.0150286 14.8095529,13.0201714 13.6518588,13.2027429 C12.7973294,13.3424571 11.9531059,13.5576 11.1037294,13.7324571 C10.2887059,13.8970286 9.47196471,14.0470286 8.65951765,14.2210286 C8.4242,14.2716 8.1322,14.3118857 7.98018824,14.4713143 C7.41508235,15.0558857 6.9058,15.6953143 6.35958824,16.3021714 C5.80822353,16.9090286 5.21134118,17.4730286 4.67801176,18.0936 C4.19449412,18.6524571 3.82348235,19.3098857 3.30647059,19.8284571 C2.53181176,20.6058857 1.69016471,21.3156 0.839929412,22.0038857 C0.690494118,22.1247429 0.267952941,22.1050286 0.120235294,21.9841714 C-0.00944705882,21.8641714 -0.0395058824,21.4656 0.0584,21.2856 C0.702517647,20.0890286 1.34749412,18.8821714 2.08436471,17.7387429 C3.00674118,16.2970286 3.98150588,14.8913143 4.99577647,13.5121714 C6.02550588,12.1090286 6.36731765,10.5498857 6.31063529,8.86902857 C6.27370588,7.82331429 6.22131765,6.7836 6.84052941,5.84245714 C6.92727059,5.70702857 6.83022353,5.37017143 6.71514118,5.20045714 C6.46007059,4.81045714 6.10795294,4.48045714 5.84772941,4.09131429 C5.49475294,3.5616 5.548,2.9976 5.8984,2.47474286 C6.12083529,2.1456 6.39222353,1.84817143 6.64214118,1.53788571 C7.04063529,1.03817143 7.45458824,0.9096 8.14422353,1.12388571 C9.14131765,1.42388571 10.1813529,1.64417143 11.2763529,1.3236 C11.9007176,1.13931429 12.6247059,1.15388571 13.2808471,1.2336 C14.5493294,1.38874286 15.7722941,1.31417143 16.9712118,0.874457143 C17.0828588,0.834171429 17.2211294,0.839314286 17.3439412,0.854742857 C18.1228941,0.9336 18.9001294,1.01417143 19.6773647,1.10931429 C20.9449882,1.2636 21.6174471,2.3556 21.2412824,3.55645714 C20.9544353,4.47017143 20.6152,5.28531429 19.7623882,5.88188571 C19.2007176,6.2796 18.7232118,6.82817143 19.2075882,7.70845714 C19.3948118,8.04702857 19.2805882,8.83131429 19.0057647,9.05931429 C18.6648118,9.34902857 18.0112471,9.34902857 17.4916588,9.34902857 C16.1390118,9.34902857 14.7855059,9.25388571 13.4345765,9.2496 C12.4160118,9.23931429 11.3416235,9.07902857 10.4664824,9.77588571 C10.1719059,10.0107429 9.87647059,10.3998857 9.83095294,10.7504571 C9.74678824,11.4250286 10.1890824,11.6187429 10.8581059,11.4498857 C11.7229412,11.2296 12.6195529,10.9801714 13.4972706,10.9998857 C15.4940353,11.0350286 17.4366941,10.9998857 19.3355529,10.2353143 C19.8800471,10.0158857 20.7569059,10.1307429 21.2842235,10.4307429 C22.6566235,11.2193143 23.9379882,12.1741714 25.2253647,13.1007429 C25.7672824,13.4924571 26.1425882,14.5913143 26.1503176,15.2761714" id="Fill-8" fill="#FEFEFE" mask="url(#mask-4)"></path>
                    </g>
                    <path d="M122.978548,10.1682 L122.978548,10.1682 C122.914136,10.0876286 122.848866,10.0130571 122.782736,9.93334286 C121.439536,10.4724857 120.072289,10.5573429 118.653513,10.3130571 C118.074666,10.2187714 117.578266,10.4227714 117.275101,11.0750571 C116.773548,12.1507714 116.836242,13.2556286 116.893784,14.3656286 C116.926419,14.8807714 117.287984,14.7813429 117.588572,14.5259143 C117.956148,14.2284857 118.292807,13.8899143 118.67756,13.6190571 C119.322536,13.1647714 120.014748,12.7807714 120.64856,12.3162 C121.229125,11.8919143 121.771901,11.4042 122.309525,10.9250571 C122.56116,10.6970571 122.758689,10.4176286 122.978548,10.1682 L122.978548,10.1682 Z M128.650219,21.9444857 C128.650219,20.7033429 128.645925,19.4596286 128.652795,18.2184857 C128.655372,17.2413429 128.51796,17.0459143 127.512278,17.1367714 C126.394948,17.2362 125.294795,17.5010571 124.177466,17.6210571 C123.67076,17.6759143 123.146019,17.5507714 122.628148,17.5207714 C122.443501,17.5104857 122.18156,17.5010571 122.081936,17.6013429 C121.989184,17.7059143 122.031266,17.9630571 122.059607,18.1430571 C122.121442,18.5819143 122.271736,19.0147714 122.276889,19.4544857 C122.301795,21.5193429 122.286336,23.5850571 122.291489,25.6490571 C122.291489,26.5979143 121.675713,27.1970571 121.019572,27.7362 C120.669172,28.0267714 119.842125,27.5073429 119.747654,26.8122 C119.620548,25.8427714 119.645454,24.8467714 119.669501,23.8644857 C119.707289,22.2367714 119.811207,20.6082 119.867031,18.9847714 C119.897089,18.0633429 119.877336,17.1470571 119.88936,16.2316286 C119.897089,15.6033429 119.560431,15.4533429 119.009925,15.5982 C118.788348,15.6522 118.567631,15.7027714 118.345195,15.7430571 C116.993407,15.9924857 116.861148,16.1724857 116.863725,17.4907714 C116.863725,17.8730571 116.691101,18.2536286 116.63356,18.6376286 C116.530501,19.2942 116.473819,19.9593429 116.368184,20.6133429 C116.06416,22.4862 114.322466,23.2002 112.921725,23.2507714 C112.498325,23.2653429 112.069772,23.2704857 111.646372,23.2507714 C111.447984,23.2404857 111.255607,23.1556286 111.058936,23.1007714 C111.148254,22.9113429 111.183466,22.6610571 111.326031,22.5367714 C111.80096,22.1364857 112.307666,21.7644857 112.818666,21.4044857 C113.819195,20.6930571 114.217689,19.7390571 114.482207,18.5382 C115.067066,15.9427714 114.673725,13.3396286 114.787089,10.7424857 C114.821442,10.0079143 114.467607,9.25448571 114.449572,8.50448571 C114.424666,7.44762857 114.959713,6.59134286 115.810807,5.97677143 C116.527925,5.45734286 117.250195,5.74705714 117.470913,6.60162857 C117.652984,7.31048571 118.008536,7.71762857 118.830431,7.68762857 C120.276689,7.63277143 121.671419,7.47248571 123.021489,6.88105714 C123.547948,6.65562857 124.207525,6.7362 124.803548,6.66591429 C125.645195,6.57162857 126.481689,6.46191429 127.325054,6.36591429 C127.519148,6.3462 127.735572,6.32734286 127.915925,6.38134286 C129.385372,6.8262 130.847948,6.68648571 132.307089,6.36591429 C133.536925,6.08648571 134.106325,6.48677143 134.205948,7.74762857 C134.316736,9.14905714 134.223984,9.49362857 133.331666,9.60334286 C132.342301,9.72848571 131.322019,9.61362857 130.314619,9.5982 C130.070713,9.5982 129.831101,9.5982 129.588054,9.58277143 C129.303784,9.56905714 128.996325,9.60334286 128.748125,9.49877143 C128.041313,9.20905714 127.696066,9.31877143 127.312172,9.9882 C127.223713,10.1484857 127.046795,10.2676286 126.884478,10.3679143 C126.34256,10.7219143 125.775736,11.0347714 125.24756,11.4042 C124.09416,12.2116286 122.946772,13.0302 121.828584,13.8796286 C121.648231,14.0193429 121.487631,14.4410571 121.573513,14.6013429 C121.751289,14.9407714 121.716078,15.5784857 122.408289,15.4533429 C123.855407,15.1902 125.302525,14.9407714 126.748784,14.6862 C126.996984,14.6416286 127.261501,14.6613429 127.489948,14.5807714 C127.765631,14.4813429 128.118607,14.3716286 128.251725,14.1496286 C128.456125,13.8196286 128.512807,13.4450571 128.106584,13.0902 C127.564666,12.6153429 127.650548,11.7393429 128.207066,11.2396286 C128.85376,10.6567714 129.330407,10.6824857 129.935878,11.3339143 C130.392772,11.8267714 130.718266,12.3410571 130.710536,13.0550571 C130.702807,13.6302 131.121913,13.7844857 131.705054,13.7099143 C132.642889,13.5950571 133.594466,13.5247714 134.540889,13.5496286 C135.228807,13.5599143 136.16836,14.6116286 136.123701,15.1550571 C136.055854,15.9222 135.191878,16.6473429 134.311584,16.6122 C133.670901,16.5813429 133.028501,16.4973429 132.402419,16.3627714 C131.71536,16.2179143 130.764642,16.8119143 130.667595,17.5010571 C130.613489,17.9184857 130.514725,18.3230571 130.433136,18.7344857 C130.407372,18.8604857 130.352407,18.9847714 130.362713,19.1047714 C130.482089,21.0530571 130.608336,23.0064857 130.738019,24.9564857 C130.774948,25.5264857 130.850525,26.0982 130.872854,26.6673429 C130.91236,27.6367714 129.856007,28.5230571 128.896701,28.2890571 C127.93396,28.0559143 126.984101,27.7764857 126.046266,27.4670571 C125.684701,27.3470571 125.34976,27.1122 125.051748,26.8722 C124.885995,26.7427714 124.687607,26.4179143 124.748584,26.3030571 C124.837901,26.1282 125.135054,25.9782 125.34976,25.9584857 C126.102089,25.8830571 126.863866,25.9233429 127.601595,25.8084857 C127.856666,25.7682 128.161548,25.4407714 128.263748,25.1819143 C128.456125,24.6744857 128.563478,24.1250571 128.622736,23.5850571 C128.681136,23.0459143 128.635619,22.4964857 128.635619,21.9444857 L128.650219,21.9444857 Z" id="Fill-11" fill="#FEFEFE"></path>
                    <path d="M73.8033435,20.9527714 L73.8033435,20.9527714 L73.8033435,20.9682 C74.0060259,20.9682 74.2087082,20.9827714 74.4062376,20.9630571 C75.1534141,20.8876286 75.7107906,20.2893429 75.6652729,19.7690571 C75.57252,18.7147714 75.6000024,17.6407714 75.5012376,16.5864857 C75.4565788,16.0782 75.3938847,15.3530571 75.0606612,15.1310571 C74.0360847,14.4564857 72.4498376,15.3530571 72.3364729,16.5616286 C72.2368494,17.5859143 72.1243435,18.6127714 72.0281553,19.6344857 C71.9156494,20.8730571 72.0942847,21.0376286 73.3541788,20.9527714 C73.5010376,20.9424857 73.6513318,20.9527714 73.8033435,20.9527714 M72.3098494,7.72277143 C72.01012,6.63677143 70.5475435,5.89191429 69.4482494,6.09162857 C69.4422376,6.0462 69.4207671,5.97162857 69.4422376,5.95705714 C70.4857082,5.26705714 70.3620376,4.4862 69.0909788,3.64962857 C68.8333318,3.47905714 68.3661318,3.15934286 68.3961906,3.10448571 C68.6323671,2.63477143 68.8608141,2.05534286 69.2739082,1.80591429 C70.7201671,0.943628571 73.4271788,1.75105714 73.9888494,3.62391429 C74.2087082,4.35591429 74.3194965,4.96277143 74.0034494,5.69734286 C73.7698494,6.23648571 73.8007671,6.89134286 73.6994259,7.55734286 C73.8136494,7.55305714 73.98112,7.57791429 74.1211082,7.5282 C75.6781553,6.95562857 77.2901671,6.59134286 78.9330965,6.67105714 C79.6819906,6.7062 80.4540729,7.10648571 81.1256729,7.49305714 C81.6349553,7.78791429 81.7148259,8.41448571 81.5413435,8.97848571 C81.3987788,9.45848571 81.0114494,9.63848571 80.5159082,9.82362857 C79.1735671,10.3370571 77.8449671,10.1682 76.4674141,10.1330571 C75.3706965,10.1082 74.2413435,10.4930571 73.1832729,10.8573429 C72.8878376,10.9653429 72.6568141,11.6287714 72.6344847,12.0564857 C72.5494612,13.4947714 73.0888024,13.8393429 74.3658729,13.2599143 C75.55792,12.7156286 77.6216729,12.9959143 78.52172,13.8642 C79.0258494,14.3570571 78.9038965,14.9810571 78.6917671,15.5527714 C77.9849553,17.4410571 78.1867788,19.3790571 78.4890847,21.2853429 C78.6247788,22.1664857 78.4461435,22.8967714 77.9308494,23.4753429 C77.3520024,24.1353429 76.4545318,23.9450571 75.8104141,23.6253429 C74.7231435,23.0853429 73.7397906,22.3464857 72.7100612,21.6942 C72.5297082,21.5844857 72.3287435,21.5056286 72.1346494,21.4096286 C72.0814024,21.6350571 71.9697553,21.8596286 71.9826376,22.0747714 C72.0839788,23.7204857 72.0668024,25.3464857 71.4870965,26.9279143 C71.2492024,27.5673429 71.0800141,28.2333429 70.8524259,28.8779143 C70.8051906,29.0124857 70.6420141,29.1110571 70.5295082,29.2302 C70.4453435,29.0707714 70.2830259,28.9182 70.2735788,28.7579143 C70.1456141,26.5576286 70.0331082,24.3496286 69.9274729,22.1467714 C69.8630612,20.8027714 69.8579082,19.4596286 69.7582847,18.1224857 C69.7058965,17.4316286 69.5255435,16.7519143 69.3443318,16.0876286 C69.3013906,15.9427714 69.0136847,15.7927714 68.8204494,15.7679143 C67.4772494,15.5733429 67.3072024,15.7533429 67.22132,17.1016286 C67.1766612,17.8182 67.01692,18.5227714 66.8966847,19.2290571 C66.7352259,20.1487714 66.5565906,21.0624857 66.3942729,21.9787714 C66.2791906,22.6259143 65.8678141,22.8564857 65.2571906,22.7707714 C63.7405082,22.5667714 62.9830259,21.2124857 63.5378259,19.6242 C64.1682024,17.8002 64.8501082,15.9976286 65.4916494,14.1796286 C65.6127435,13.8444857 65.5552024,13.4099143 65.7527318,13.1399143 C66.1890141,12.5407714 67.0581435,12.5356286 67.6223906,13.0550571 C67.8585671,13.2753429 68.0603906,13.5299143 68.2888376,13.7587714 C68.8960259,14.3819143 69.1811553,14.3716286 69.5633318,13.6096286 C69.7651553,13.1896286 69.9128729,12.7104857 69.9326259,12.2562 C69.9884494,11.0296286 69.4207671,10.7622 68.2081082,10.8899143 C66.9181553,11.0244857 65.8824141,11.7333429 64.6852141,12.0213429 C63.6949906,12.2604857 63.0508729,12.2253429 62.4316612,11.4839143 C61.9936612,10.9550571 61.3710141,10.5779143 60.8763318,10.0876286 C60.3017788,9.51848571 60.2992024,8.86362857 60.8007553,8.30991429 C61.2816965,7.77762857 62.19892,7.6482 62.69532,8.16762857 C63.2466847,8.75477143 63.7430847,8.79334286 64.4249906,8.44962857 C64.7633671,8.27734286 65.2013671,8.28505714 65.5921318,8.21734286 C66.1598141,8.11705714 66.7146141,7.98762857 67.2840141,7.93277143 C68.0037082,7.87277143 68.7259788,7.87705714 69.4482494,7.85305714 C70.3826494,7.81277143 71.3170494,7.76734286 72.3098494,7.72277143" id="Fill-13" fill="#FEFEFE"></path>
                    <path d="M146.850321,12.7605429 L146.850321,12.7605429 C146.828851,12.8308286 146.808239,12.9002571 146.788486,12.9602571 C147.281451,13.4642571 147.715156,14.0496857 148.286274,14.4465429 C149.042898,14.9659714 149.897427,15.3431143 150.717604,15.7682571 C151.268968,16.0528286 151.854686,15.7725429 152.093439,15.1956857 C152.298698,14.6959714 152.491074,14.1439714 152.857792,13.7745429 C153.404004,13.2199714 153.546568,12.7254 153.281192,11.9865429 C152.995204,11.1894 152.946251,11.1388286 152.126074,11.4842571 C151.621945,11.6942571 151.025921,12.0011143 150.549274,11.9016857 C149.118474,11.5999714 148.160027,12.7854 146.850321,12.7605429 M137.850709,22.5816857 C138.242333,22.5816857 138.512004,22.5062571 138.714686,22.5962571 C140.138615,23.1911143 141.512733,23.0162571 142.972733,22.6211143 C144.514321,22.2071143 145.896168,21.5642571 147.090792,20.5588286 C147.847415,19.9236857 148.492392,19.1548286 149.148533,18.4134 C149.225827,18.3174 149.138227,17.9479714 149.012839,17.8485429 C148.645262,17.5614 148.240756,17.2811143 147.810486,17.1114 C146.474156,16.5619714 145.883286,15.4434 145.476204,14.1945429 C145.414368,13.9991143 145.704651,13.6999714 145.820592,13.4394 C145.901321,13.2499714 145.968309,13.0502571 146.041309,12.8548286 C145.840345,12.8256857 145.629074,12.7502571 145.43498,12.7759714 C144.817486,12.8599714 144.174227,13.1394 143.594521,13.0348286 C143.038862,12.9354 142.417074,12.5505429 142.065815,12.1108286 C141.803015,11.7714 141.754921,11.0745429 141.915521,10.6528286 C142.150839,10.0434 142.568227,9.4194 143.082662,9.03882857 C143.469133,8.74911429 144.144168,8.7294 144.672345,8.77482857 C145.508839,8.83911429 146.353921,9.2694 147.161215,9.18882857 C148.525027,9.0594 149.860498,8.64968571 151.211427,8.35911429 C153.063051,7.96225714 154.912956,7.54311429 156.767156,7.17111429 C157.667204,6.9954 158.578415,6.83082857 159.486192,6.80082857 C160.602662,6.77168571 161.464921,7.5774 161.594604,8.52454286 C161.691651,9.23425714 161.324933,9.76311429 160.813074,10.0185429 C160.165521,10.3374 159.402886,10.4882571 158.678898,10.5628286 C158.056251,10.6279714 157.411274,10.4882571 156.780039,10.4274 C156.142792,10.3682571 155.759756,10.6571143 155.845639,11.2794 C156.100709,13.1394 155.165451,14.6959714 154.552251,16.3322571 C154.450909,16.5919714 154.205286,16.8216857 153.980274,17.0111143 C153.58178,17.3505429 153.541415,17.6359714 154.000027,17.9625429 C155.782086,19.2139714 157.603651,20.3934 159.717215,21.0431143 C161.724286,21.6654 163.744239,22.2516857 165.748733,22.8714 C165.990062,22.9459714 166.192745,23.1354 166.412604,23.2759714 C166.263168,23.4954 166.157533,23.7499714 165.967733,23.9154 C164.909662,24.8162571 163.604251,25.1616857 162.280804,25.4059714 C161.122251,25.6185429 159.950815,25.7479714 158.774227,25.8534 C158.511427,25.8782571 158.115509,25.7385429 157.962639,25.5414 C156.389274,23.4859714 154.569427,21.7048286 152.363968,20.3136857 C151.84438,19.9836857 151.434721,19.9734 151.043956,20.4285429 C150.617121,20.9222571 150.281321,21.5102571 149.784921,21.9045429 C148.020039,23.3111143 146.146086,24.5848286 143.995592,25.3159714 C143.153086,25.5962571 142.161145,25.5011143 141.243921,25.4711143 C140.317251,25.4411143 139.746133,24.7142571 139.136368,24.1451143 C138.692356,23.7251143 138.35398,23.2005429 137.850709,22.5816857" id="Fill-15" fill="#FEFEFE"></path>
                    <path d="M177.40314,8.13248571 C178.188105,8.05191429 178.781552,8.03734286 179.355246,7.92762857 C180.429634,7.72277143 181.129575,8.44448571 181.648305,9.07877143 C181.959199,9.45334286 181.686093,10.3182 181.633705,10.9602 C181.619105,11.1393429 181.408693,11.2987714 181.386364,11.4787714 C181.357164,11.6536286 181.395811,11.9210571 181.510893,12.0162 C181.619105,12.1062 181.911964,12.1010571 182.051952,12.0110571 C182.744164,11.6090571 183.523116,11.3844857 183.784199,10.4022 C184.033258,9.46362857 185.914081,9.30848571 186.644081,10.0979143 C187.048587,10.5376286 187.406716,11.0193429 187.745952,11.5139143 C188.380622,12.4404857 188.109234,13.1647714 186.989328,13.4707714 C185.657293,13.8247714 184.318387,14.1393429 182.973469,14.4564857 C182.540622,14.5610571 182.091458,14.6116286 181.648305,14.6956286 C180.831564,14.8559143 180.664093,15.6230571 180.581646,16.1827714 C180.412458,17.3407714 180.472575,18.5382 180.463128,19.7236286 C180.455399,20.3836286 180.941493,20.7427714 181.475681,20.8730571 C182.270952,21.0727714 183.096281,21.1482 183.919034,21.2184857 C184.460952,21.2622 185.016611,21.1782 185.562822,21.2124857 C187.347458,21.3256286 188.899352,20.9424857 189.939387,19.3396286 C190.500199,18.4627714 191.104811,17.6116286 191.707705,16.7716286 C191.824505,16.6070571 192.029764,16.5076286 192.194658,16.3824857 C192.289987,16.5864857 192.490093,16.8016286 192.465187,16.9919143 C192.252199,18.6376286 192.089881,20.2979143 191.715434,21.9144857 C191.502446,22.8359143 191.158058,23.8447714 190.026128,24.1850571 C189.789093,24.2553429 189.543469,24.3342 189.300422,24.3342 C188.069728,24.3393429 186.833881,24.3599143 185.603187,24.3050571 C184.660199,24.2596286 183.725799,24.1104857 182.786246,23.9999143 C182.488234,23.9707714 182.184211,23.8499143 181.893928,23.8799143 C180.094693,24.0496286 179.087293,22.8059143 178.107375,21.6796286 C177.733787,21.2424857 177.743234,20.3990571 177.750964,19.7442 C177.763846,18.5433429 177.583493,17.3219143 178.209575,16.1673429 C178.465505,15.7027714 178.07474,15.2836286 177.548281,15.1010571 C177.217634,14.9862 176.891281,14.8610571 176.581246,14.7067714 C175.858975,14.3339143 175.488822,13.1296286 175.901916,12.4507714 C175.98694,12.3110571 176.230846,12.1610571 176.378564,12.1816286 C176.876681,12.2459143 177.362775,12.4104857 177.860893,12.4807714 C178.042964,12.5064857 178.389928,12.3907714 178.41054,12.2913429 C178.615799,11.2447714 178.829646,10.1982 177.934752,9.28877143 C177.677964,9.0342 177.610975,8.59962857 177.40314,8.13248571" id="Fill-17" fill="#FEFEFE"></path>
                    <path d="M171.498728,11.7962571 C172.060399,13.1102571 172.822175,14.2588286 172.621211,15.7476857 C172.511281,16.5516857 172.646116,17.3814 172.623787,18.2034 C172.580846,19.8439714 172.610905,21.4939714 172.387611,23.1105429 C172.287987,23.8699714 171.756375,24.6191143 171.258258,25.2508286 C170.937058,25.6588286 170.385693,25.4565429 170.143505,24.9816857 C169.503681,23.7354 169.109481,22.4659714 169.726975,21.0534 C169.914199,20.6231143 169.809422,20.0736857 169.886716,19.5894 C170.013822,18.7896857 170.223375,17.9976857 170.323858,17.1911143 C170.458693,16.0631143 170.148658,15.0011143 169.673728,13.9845429 C169.489081,13.5996857 169.368846,13.0348286 169.067399,12.9105429 C168.786564,12.7905429 168.30734,13.1548286 167.909705,13.2894 C167.579916,13.4051143 167.210622,13.6305429 166.912611,13.5602571 C166.288246,13.4248286 165.669034,13.1796857 165.108222,12.8754 C164.834258,12.7254 164.674516,12.3414 164.499316,12.0414 C164.188422,11.5039714 164.416011,10.8276857 165.012893,10.5671143 C166.407622,9.9534 167.839281,9.41425714 169.207387,8.73968571 C169.891869,8.40454286 170.471575,7.85254286 171.083058,7.3854 C171.377634,7.15568571 171.689387,6.93111429 171.914399,6.64654286 C172.115364,6.39111429 172.242469,6.06625714 172.340375,5.75682857 C172.493246,5.2674 172.545634,4.7454 172.725128,4.26625714 C172.949281,3.64911429 173.460281,3.53425714 174.017658,3.79397143 C175.343681,4.41111429 176.418928,5.24682857 176.926493,6.72111429 C177.263152,7.68797143 176.926493,8.36425714 176.280658,8.89911429 C175.458764,9.57882857 174.54154,10.1479714 173.626893,10.7068286 C172.937258,11.1294 172.185787,11.4491143 171.498728,11.7962571" id="Fill-19" fill="#FEFEFE"></path>
                    <path d="M205.3417,19.6838571 L205.3417,19.6838571 C204.975841,19.7738571 204.6847,19.8441429 204.396994,19.9144286 C203.815571,20.0541429 203.235006,20.1784286 202.6553,20.3335714 C202.176076,20.4527143 201.703724,20.6027143 201.231371,20.7381429 C201.497606,21.3055714 201.743229,21.8841429 202.046394,22.4318571 C202.118535,22.5612857 202.389924,22.6512857 202.565982,22.6512857 C204.624582,22.6358571 204.739665,22.5664286 205.844112,20.8932857 C205.853559,20.8735714 205.881041,20.853 205.886194,20.8332857 C205.933429,20.559 206.075994,20.2435714 205.988394,20.0138571 C205.916253,19.839 205.549535,19.779 205.3417,19.6838571 L205.3417,19.6838571 Z M204.695006,24.4941429 C203.878265,24.4941429 203.065818,24.4744286 202.252512,24.5044286 C202.053265,24.5147143 201.843712,24.6647143 201.665935,24.7864286 C200.9033,25.2964286 200.154406,25.0821429 199.903629,24.225 C199.504276,22.8561429 199.025912,21.4855714 198.791453,20.079 C198.569876,18.7847143 199.259512,18.4135714 200.467876,18.8704286 C200.925629,19.0444286 201.543124,18.8944286 202.067865,18.8052857 C203.394747,18.5627143 204.745676,18.3827143 206.021029,17.9832857 C207.216512,17.6061429 208.149194,17.9627143 209.105924,18.5532857 C209.805006,18.9895714 210.008547,19.7438571 209.419394,20.313 C208.500453,21.2027143 207.780759,22.1918571 207.427782,23.4158571 C207.136641,24.4452857 206.236594,24.3947143 205.4439,24.5344286 C205.204288,24.5798571 204.944065,24.5395714 204.695006,24.5395714 L204.695006,24.4941429 Z" id="Fill-21" fill="#FEFEFE"></path>
                    <path d="M120.319888,5.13754286 C121.454394,4.47154286 121.209629,3.70868571 120.816288,2.83011429 C120.552629,2.23525714 121.074794,1.44154286 121.713759,1.32411429 C124.214653,0.8844 126.421829,2.22582857 126.007018,5.09725714 C125.8447,6.19611429 124.893124,6.65554286 123.702794,6.2664 C123.164312,6.09154286 122.643006,5.85754286 122.103665,5.67754286 C121.5961,5.50268571 121.074794,5.36297143 120.319888,5.13754286" id="Fill-23" fill="#FEFEFE"></path>
                    <g id="Group-27" transform="translate(148.576471, 0.306257)">
                        <mask id="mask-6" fill="white">
                            <use xlink:href="#path-5"></use>
                        </mask>
                        <g id="Clip-26"></g>
                        <path d="M1.97503647,5.27571429 C2.24556588,4.51114286 1.97847176,3.82542857 1.15829529,3.24771429 C0.992542353,3.13285714 0.742624706,3.06857143 0.667048235,2.91857143 C0.466083529,2.48828571 0.0959305882,1.92942857 0.231624706,1.60457143 C0.413695294,1.18542857 0.983095294,0.812571429 1.45888353,0.657428571 C2.31169529,0.393428571 3.19284824,0.642857143 3.88506,1.15457143 C4.61162471,1.69371429 5.25574235,2.36828571 5.81998941,3.07285714 C6.02868353,3.33771429 6.02095412,3.90428571 5.89642471,4.25914286 C5.65681294,4.97142857 5.20936588,5.59542857 4.45961294,5.86457143 C4.15816588,5.97085714 3.76482471,5.96057143 3.45221294,5.88 C2.96268353,5.74028571 2.50750706,5.496 1.97503647,5.27571429" id="Fill-25" fill="#FEFEFE" mask="url(#mask-6)"></path>
                    </g>
                    <path d="M127.544398,21.3353143 C127.251539,21.7141714 127.061739,22.1864571 126.724221,22.3364571 C126.429645,22.4658857 125.944409,22.2961714 125.593151,22.1418857 C125.021174,21.8993143 124.477539,21.5898857 123.948504,21.2624571 C123.637609,21.0678857 123.335304,20.8227429 123.113727,20.5381714 C122.813139,20.1533143 123.008951,19.6536 123.495045,19.5644571 C124.76868,19.3244571 125.994221,19.3793143 126.963833,20.3787429 C127.184551,20.6127429 127.307362,20.9324571 127.544398,21.3353143" id="Fill-28" fill="#FEFEFE"></path>
                </g>
            </g>
        </g>
    </g>
</svg>