<?xml version="1.0" encoding="UTF-8"?>
<svg width="754px" height="124px" viewBox="0 0 754 124" version="1.1" xmlns="http://www.w3.org/2000/svg" xmlns:xlink="http://www.w3.org/1999/xlink">
    <title>vedio title</title>
    <defs>
        <rect id="path-1" x="0" y="0" width="250.853242" height="73"></rect>
    </defs>
    <g id="2021桃園管樂音樂節" stroke="none" stroke-width="1" fill="none" fill-rule="evenodd">
        <g id="01_Home" transform="translate(-338.000000, -832.000000)">
            <g id="vedio-title" transform="translate(338.000000, 832.000000)">
                <text id="宣傳影片" font-family="NotoSansCJKtc-Bold, Noto Sans CJK TC" font-size="26" font-weight="bold" letter-spacing="1.13043478" fill="#322B2A">
                    <tspan x="328.23913" y="116">宣傳影片</tspan>
                </text>
                <g id="EVENT" transform="translate(257.000000, 0.000000)">
                    <mask id="mask-2" fill="white">
                        <use xlink:href="#path-1"></use>
                    </mask>
                    <g id="Mask"></g>
                    <g id="VEDIO" mask="url(#mask-2)" fill="#2EB6AA">
                        <polygon id="Fill-1" points="43.4286053 0.737994565 27.1384077 48.2072535 10.6726093 0.737994565 -9.92094862e-05 0.737994565 27.1629621 79.1454837 54.0975935 0.737994565"></polygon>
                        <polygon id="Fill-2" points="57.4443759 72.6260315 103.367207 72.6260315 103.367207 62.3685147 67.6039233 62.3685147 67.6039233 49.6984712 98.9580893 49.6984712 98.9580893 39.6366452 67.6039233 39.6366452 67.6039233 10.5055157 103.367207 10.5055157 103.367207 0.443937648 57.4443759 0.443937648"></polygon>
                        <path d="M123.860712,62.3683907 L117.868707,62.3683907 L117.868707,10.4076704 L123.860712,10.4076704 C138.186314,10.4076704 149.840948,22.0623047 149.840948,36.3879065 C149.840948,50.7137563 138.186314,62.3683907 123.860712,62.3683907 M126.588973,0.446789921 L126.588973,0.247874901 L107.806881,0.247874901 L107.806881,72.4299688 L123.860712,72.4299688 C133.498418,72.4299688 142.552275,68.6840666 149.354326,61.8817682 C156.156624,55.0794698 159.902526,46.0256121 159.902526,36.3879065 C159.902526,26.750449 156.156624,17.6965913 149.354326,10.8942929 C143.198377,4.73834427 135.19738,1.08495494 126.588973,0.446789921" id="Fill-3"></path>
                        <polygon id="Fill-6" points="164.342746 72.4301176 174.404324 72.4301176 174.404324 0.248023715 164.342746 0.248023715"></polygon>
                        <path d="M214.885912,62.3683907 C200.56031,62.3683907 188.905675,50.7137563 188.905675,36.3879065 C188.905675,22.0623047 200.56031,10.4076704 214.885912,10.4076704 C229.211761,10.4076704 240.866396,22.0623047 240.866396,36.3879065 C240.866396,50.7137563 229.211761,62.3683907 214.885912,62.3683907 M240.379773,10.8942929 C233.577475,4.09199447 224.523617,0.346092292 214.885912,0.346092292 C205.248206,0.346092292 196.194348,4.09199447 189.392298,10.8942929 C182.59,17.6965913 178.844097,26.750449 178.844097,36.3879065 C178.844097,46.0256121 182.59,55.0794698 189.392298,61.8817682 C196.194348,68.6840666 205.248206,72.4299688 214.885912,72.4299688 C224.523617,72.4299688 233.577475,68.6840666 240.379773,61.8817682 C247.182072,55.0794698 250.927974,46.0256121 250.927974,36.3879065 C250.927974,26.750449 247.182072,17.6965913 240.379773,10.8942929" id="Fill-8"></path>
                    </g>
                </g>
                <g id="Group-19" transform="translate(0.000000, 5.000000)">
                    <polygon id="Fill-30" fill="#38B3AE" points="97.5085073 77.4905554 75.1466606 55.1152656 97.5085073 32.7399758 119.870354 55.1152656"></polygon>
                    <polygon id="Fill-32" fill="#E3007E" points="177.246217 83.8766922 165.228967 71.8504916 177.246217 59.8260164 189.265193 71.8504916"></polygon>
                    <path d="M13.4496564,41.7151104 L36.5529894,18.5978885 C42.9383934,24.9836803 42.9314958,35.331044 36.5529894,41.7151104 C30.1710342,48.0991767 19.8316116,48.0991767 13.4496564,41.7151104" id="Fill-34" fill="#E3007E"></path>
                    <path d="M11.4272957,39.6913613 L34.5271799,16.5741395 C28.1486735,10.1866223 17.8023533,10.1900732 11.4272957,16.5741395 C5.04361615,22.9599313 5.04361615,33.3055696 11.4272957,39.6913613" id="Fill-36" fill="#E3007E"></path>
                    <path d="M176.848746,39.5379712 L165.852332,28.536672 C164.752174,27.4341265 164.757347,25.6448625 165.852332,24.5492187 C166.121337,24.2835035 166.433451,24.069551 166.774879,23.9315171 L168.69757,23.5415715 L180.411329,21.1380568 C180.535485,21.1035483 180.654468,21.0793924 180.776899,21.0604127 C181.644266,20.9361822 182.520254,21.2243279 183.160002,21.86446 C183.789403,22.4976904 184.084273,23.3655783 183.956668,24.2576222 C183.939424,24.3663238 183.917007,24.4612221 183.89459,24.554395 L182.373681,31.9599119 L181.18213,37.7556089 L181.164886,37.8608597 C181.044179,38.371585 180.785521,38.8253714 180.419951,39.194612 C179.462917,40.1470456 177.952354,40.2868049 176.848746,39.5379712 M183.604893,38.473385 C183.630759,38.3905647 183.648003,38.3094698 183.661798,38.2197478 L184.841279,32.4671864 L186.341495,25.1479406 C186.38288,24.970222 186.419093,24.7959542 186.443234,24.6216865 C186.679475,23.0135919 186.172505,21.3192262 184.934396,20.0838231 C183.699735,18.8449692 182.008111,18.342871 180.397534,18.5723523 C180.213025,18.5982336 180.033689,18.6396438 179.842282,18.6810539 L172.555023,20.1787214 L167.471531,21.2208771 C167.468083,21.2157008 167.459461,21.2157008 167.452563,21.2243279 L166.11099,21.493494 C166.104093,21.4986702 166.092022,21.5038465 166.081676,21.5090228 C165.347087,21.76266 164.657332,22.1836633 164.07449,22.7668564 C161.987982,24.8546186 161.991431,28.2347229 164.07449,30.3155835 L175.208855,41.4618182 C177.300536,43.0474823 180.290622,42.883567 182.197794,40.9752488 C182.916863,40.2574727 183.384172,39.3895848 183.604893,38.473385" id="Fill-38" fill="#38B3AE"></path>
                    <path d="M14.3389226,80.7610953 L3.34250867,69.7597961 C2.24234996,68.6589761 2.24407434,66.8679866 3.34250867,65.7723428 C3.60806422,65.508353 3.92017821,65.296126 4.26333117,65.1563667 L6.18774672,64.7646956 L17.9015056,62.3646317 C18.0256614,62.3283978 18.1446441,62.3042419 18.2670755,62.2869877 C19.1344421,62.1610318 20.0104305,62.4491775 20.6484536,63.0893095 C21.2795791,63.7225399 21.5744492,64.5904278 21.4468446,65.4824717 C21.4296008,65.5911734 21.4071837,65.6860716 21.3830423,65.7809699 L19.8638576,73.1847615 L18.670582,78.9804584 L18.6550626,79.0874347 C18.5326311,79.5964346 18.2739731,80.0502209 17.9066787,80.4194615 C16.9530929,81.3718952 15.4425301,81.5116545 14.3389226,80.7610953 M21.0950697,79.6982345 C21.1192111,79.6119634 21.1347306,79.5308685 21.1502501,79.4445973 L22.3280062,73.6920359 L23.8316714,66.3745156 C23.8713323,66.1933461 23.9075444,66.0208038 23.9316859,65.8482614 C24.1696512,64.2384415 23.6626815,62.5440758 22.4245719,61.3103981 C21.189911,60.0680933 19.4965633,59.5677205 17.8859861,59.7954764 C17.6997523,59.8248086 17.5238649,59.8644933 17.332458,59.9076289 L10.0451998,61.4035709 L4.96170778,62.4474521 C4.95481023,62.4440012 4.94963707,62.4440012 4.94101514,62.4491775 L3.5977179,62.7217944 C3.59082035,62.7217944 3.58219842,62.7269706 3.5718521,62.7321469 C2.83726337,62.9875096 2.14750869,63.4102383 1.5629416,63.9917059 C-0.523566309,66.0811936 -0.518393149,69.4595725 1.5629416,71.5438839 L12.6990309,82.6866678 C14.790712,84.2723318 17.7773497,84.1032403 19.6879702,82.2000984 C20.4053151,81.4823223 20.8708995,80.6144343 21.0950697,79.6982345" id="Fill-44" fill="#E3007E"></path>
                    <polygon id="Stroke-46" stroke="#FEFEFE" stroke-width="1.57614213" stroke-linecap="round" stroke-linejoin="round" points="97.1348315 99.2696629 53.3707865 55.5071682 97.1348315 11.741573 140.898876 55.5071682"></polygon>
                    <polygon id="Stroke-48" stroke="#FEFEFE" stroke-width="1.57614213" stroke-linecap="round" stroke-linejoin="round" points="53.3707865 55.505618 54.0013065 66.8550005 98.2022472 111.011236 97.5717272 99.6571613"></polygon>
                    <polygon id="Stroke-48-Copy" stroke="#FEFEFE" stroke-width="1.57614213" stroke-linecap="round" stroke-linejoin="round" transform="translate(75.786517, 27.752809) scale(1, -1) translate(-75.786517, -27.752809) " points="53.3707865 0 54.0013065 11.3493825 98.2022472 55.505618 97.5717272 44.1515433"></polygon>
                    <polygon id="Stroke-50" stroke="#FEFEFE" stroke-width="1.57614213" stroke-linecap="round" stroke-linejoin="round" points="140.432228 55.505618 140.898876 66.9983024 97.6014801 111.011236 97.1348315 99.5138746"></polygon>
                    <polygon id="Stroke-50-Copy" stroke="#FEFEFE" stroke-width="1.57614213" stroke-linecap="round" stroke-linejoin="round" transform="translate(119.016854, 27.752809) scale(1, -1) translate(-119.016854, -27.752809) " points="140.432228 0 140.898876 11.4926844 97.6014801 55.505618 97.1348315 44.0082566"></polygon>
                </g>
                <g id="Group-19-Copy" transform="translate(659.000000, 61.000000) scale(-1, 1) translate(-659.000000, -61.000000) translate(564.000000, 5.000000)">
                    <polygon id="Fill-30" fill="#38B3AE" points="97.5085073 77.4905554 75.1466606 55.1152656 97.5085073 32.7399758 119.870354 55.1152656"></polygon>
                    <polygon id="Fill-32" fill="#E3007E" points="177.246217 83.8766922 165.228967 71.8504916 177.246217 59.8260164 189.265193 71.8504916"></polygon>
                    <path d="M13.4496564,41.7151104 L36.5529894,18.5978885 C42.9383934,24.9836803 42.9314958,35.331044 36.5529894,41.7151104 C30.1710342,48.0991767 19.8316116,48.0991767 13.4496564,41.7151104" id="Fill-34" fill="#E3007E"></path>
                    <path d="M11.4272957,39.6913613 L34.5271799,16.5741395 C28.1486735,10.1866223 17.8023533,10.1900732 11.4272957,16.5741395 C5.04361615,22.9599313 5.04361615,33.3055696 11.4272957,39.6913613" id="Fill-36" fill="#E3007E"></path>
                    <path d="M176.848746,39.5379712 L165.852332,28.536672 C164.752174,27.4341265 164.757347,25.6448625 165.852332,24.5492187 C166.121337,24.2835035 166.433451,24.069551 166.774879,23.9315171 L168.69757,23.5415715 L180.411329,21.1380568 C180.535485,21.1035483 180.654468,21.0793924 180.776899,21.0604127 C181.644266,20.9361822 182.520254,21.2243279 183.160002,21.86446 C183.789403,22.4976904 184.084273,23.3655783 183.956668,24.2576222 C183.939424,24.3663238 183.917007,24.4612221 183.89459,24.554395 L182.373681,31.9599119 L181.18213,37.7556089 L181.164886,37.8608597 C181.044179,38.371585 180.785521,38.8253714 180.419951,39.194612 C179.462917,40.1470456 177.952354,40.2868049 176.848746,39.5379712 M183.604893,38.473385 C183.630759,38.3905647 183.648003,38.3094698 183.661798,38.2197478 L184.841279,32.4671864 L186.341495,25.1479406 C186.38288,24.970222 186.419093,24.7959542 186.443234,24.6216865 C186.679475,23.0135919 186.172505,21.3192262 184.934396,20.0838231 C183.699735,18.8449692 182.008111,18.342871 180.397534,18.5723523 C180.213025,18.5982336 180.033689,18.6396438 179.842282,18.6810539 L172.555023,20.1787214 L167.471531,21.2208771 C167.468083,21.2157008 167.459461,21.2157008 167.452563,21.2243279 L166.11099,21.493494 C166.104093,21.4986702 166.092022,21.5038465 166.081676,21.5090228 C165.347087,21.76266 164.657332,22.1836633 164.07449,22.7668564 C161.987982,24.8546186 161.991431,28.2347229 164.07449,30.3155835 L175.208855,41.4618182 C177.300536,43.0474823 180.290622,42.883567 182.197794,40.9752488 C182.916863,40.2574727 183.384172,39.3895848 183.604893,38.473385" id="Fill-38" fill="#38B3AE"></path>
                    <path d="M14.3389226,80.7610953 L3.34250867,69.7597961 C2.24234996,68.6589761 2.24407434,66.8679866 3.34250867,65.7723428 C3.60806422,65.508353 3.92017821,65.296126 4.26333117,65.1563667 L6.18774672,64.7646956 L17.9015056,62.3646317 C18.0256614,62.3283978 18.1446441,62.3042419 18.2670755,62.2869877 C19.1344421,62.1610318 20.0104305,62.4491775 20.6484536,63.0893095 C21.2795791,63.7225399 21.5744492,64.5904278 21.4468446,65.4824717 C21.4296008,65.5911734 21.4071837,65.6860716 21.3830423,65.7809699 L19.8638576,73.1847615 L18.670582,78.9804584 L18.6550626,79.0874347 C18.5326311,79.5964346 18.2739731,80.0502209 17.9066787,80.4194615 C16.9530929,81.3718952 15.4425301,81.5116545 14.3389226,80.7610953 M21.0950697,79.6982345 C21.1192111,79.6119634 21.1347306,79.5308685 21.1502501,79.4445973 L22.3280062,73.6920359 L23.8316714,66.3745156 C23.8713323,66.1933461 23.9075444,66.0208038 23.9316859,65.8482614 C24.1696512,64.2384415 23.6626815,62.5440758 22.4245719,61.3103981 C21.189911,60.0680933 19.4965633,59.5677205 17.8859861,59.7954764 C17.6997523,59.8248086 17.5238649,59.8644933 17.332458,59.9076289 L10.0451998,61.4035709 L4.96170778,62.4474521 C4.95481023,62.4440012 4.94963707,62.4440012 4.94101514,62.4491775 L3.5977179,62.7217944 C3.59082035,62.7217944 3.58219842,62.7269706 3.5718521,62.7321469 C2.83726337,62.9875096 2.14750869,63.4102383 1.5629416,63.9917059 C-0.523566309,66.0811936 -0.518393149,69.4595725 1.5629416,71.5438839 L12.6990309,82.6866678 C14.790712,84.2723318 17.7773497,84.1032403 19.6879702,82.2000984 C20.4053151,81.4823223 20.8708995,80.6144343 21.0950697,79.6982345" id="Fill-44" fill="#E3007E"></path>
                    <polygon id="Stroke-46" stroke="#FEFEFE" stroke-width="1.57614213" stroke-linecap="round" stroke-linejoin="round" points="97.1348315 99.2696629 53.3707865 55.5071682 97.1348315 11.741573 140.898876 55.5071682"></polygon>
                    <polygon id="Stroke-48" stroke="#FEFEFE" stroke-width="1.57614213" stroke-linecap="round" stroke-linejoin="round" points="53.3707865 55.505618 54.0013065 66.8550005 98.2022472 111.011236 97.5717272 99.6571613"></polygon>
                    <polygon id="Stroke-48-Copy" stroke="#FEFEFE" stroke-width="1.57614213" stroke-linecap="round" stroke-linejoin="round" transform="translate(75.786517, 27.752809) scale(1, -1) translate(-75.786517, -27.752809) " points="53.3707865 0 54.0013065 11.3493825 98.2022472 55.505618 97.5717272 44.1515433"></polygon>
                    <polygon id="Stroke-50" stroke="#FEFEFE" stroke-width="1.57614213" stroke-linecap="round" stroke-linejoin="round" points="140.432228 55.505618 140.898876 66.9983024 97.6014801 111.011236 97.1348315 99.5138746"></polygon>
                    <polygon id="Stroke-50-Copy" stroke="#FEFEFE" stroke-width="1.57614213" stroke-linecap="round" stroke-linejoin="round" transform="translate(119.016854, 27.752809) scale(1, -1) translate(-119.016854, -27.752809) " points="140.432228 0 140.898876 11.4926844 97.6014801 55.505618 97.1348315 44.0082566"></polygon>
                </g>
            </g>
        </g>
    </g>
</svg>